<?xml version="1.0" standalone="yes"?>
<svg xmlns="http://www.w3.org/2000/svg" width="1080" height="720">
<path style="fill:#1c535f; stroke:none;" d="M0 0L0 381L4 375C9.90449 376.035 14.1017 373.962 16 368L21 368C20.9944 365.195 19.9808 360.303 22.4877 358.317C26.9853 354.754 37.4407 354.652 43 353.715C58.0094 351.183 74.4404 348.573 89 344.103C94.4938 342.417 111.181 335.305 114.86 341.102C118.114 346.228 117.484 355.107 118 361C119.14 374.015 120.869 387.003 122.169 400C127.17 450.018 131.361 499.994 135.842 550.015C137.337 566.71 136.584 584.549 139.326 601C140.117 605.749 142.132 615.251 147.108 617.243C150.999 618.801 166.39 617.418 169.396 614.397C173.107 610.667 169.722 605.686 176.008 603.263C192.163 597.038 210.716 597.98 227 592L219.831 512L214 450L312 436L312 437L296 439L296 440C326.187 443.622 356.402 433.901 386 432C385.983 425.585 388.646 419.994 388.721 414C389.042 388.432 384.169 360.762 378 336L377 336L377 356L376 356C376 322.641 369.965 289.376 368.986 256C368.764 248.424 368.205 240.524 367.285 233C366.969 230.419 365.915 225.791 367.773 223.603C370.736 220.115 384.468 221.347 389 220.925C407.983 219.16 427.087 217.044 446 214.714C456.36 213.437 466.648 211.936 477 210.577C479.981 210.186 485.007 211.403 487.566 209.883C495.532 205.15 483.832 190.314 492.228 185.179C498.043 181.624 510.231 182.71 517 181.95C526.702 180.861 542.678 175.429 552 178.589C559.87 181.257 567.412 189.525 574 194.474C579.643 198.713 587.965 202.899 590 210C576.569 206.031 556.834 212.397 543 213.95C538.887 214.412 529.653 213.871 527.603 218.279C525.442 222.927 527.368 230.146 527.83 235C528.601 243.097 528.441 251.879 528 260L420 274L423.83 356L426 383C450.02 377.281 477.386 378.214 502 375.83C523.072 373.79 544.13 368.935 565 365.435C576.655 363.481 588.337 361.659 600 359.754C603.733 359.144 610.379 359.494 613.397 356.987C616.385 354.504 615.013 347.334 614.576 344C613.198 333.511 613.995 322.571 614 312C614.005 300.5 623.93 303.001 623.999 292.999C624.158 270.002 624 246.998 624 224C624 217.695 621.379 203.735 625.028 198.434C627.115 195.402 631.824 196.1 635 195.714C644.19 194.6 659.294 189.275 668 193.136C673.074 195.386 681.176 200.008 683.821 205.04C686.499 210.135 685 218.4 685 224C685 240.31 684.191 256.654 683.996 273C683.841 286.02 680.615 292.615 691 302L683 303C683 306.743 684.046 312.518 681.397 315.566C676.321 321.407 654.528 320.681 647 321L647 320C651.755 319.685 656.462 318.209 659 314L656 311L666 309L668 312C670.883 307.657 676.507 306.759 674 301L677 300L674 290L677 291L673 251L672 251L670 253L671 248C667.496 243.386 668.142 237.408 669 232L664 232L664 231L669 229L669 227L664 225C670.039 217.435 669.671 210.102 680 206L680 205L643 209L644 344L645 344L645 336L646 336L646 341L647 341C648.24 335.342 650.845 330.841 656 328L656 330L659 329L656 328L656 327L660 326L665 329C669.457 318.293 697.506 316.001 708 316L706 376L705 376L704 370L699 369L699 368L694 368C711.926 391.113 736.6 380.22 761 386C753.215 353.148 762.406 319.548 758.286 286C757.318 278.119 759.45 257.114 749 255C747.125 240.165 748 224.95 748 210C748 205.933 746.464 197.751 749.603 194.603C755.184 189.009 776.191 189.787 784 188.576C815.613 183.673 848.928 181.418 880 174C876.762 179.935 867.186 180.796 861 182L861 183L865 183L865 184L842 192L838 197L840 199L840 209L841 209L840 205L845 206L845 212L846 212L847 208C857.471 212.68 868.71 210 880 210L882 158L884.603 136.318L897 133L930 128.246L969 122.385L995 119.211L1019 127.258L1080 147L1080 0L817 0C783.298 0 751.421 3.70642 718 7.71448C708.344 8.87244 692.881 6.79053 684.148 10.6034C678.741 12.964 681 25.211 681 30L681 90C681 93.7888 682.308 111.938 677.552 113.093C674.699 113.786 671.07 109.921 669 108.425C661.937 103.32 655.03 98.0452 648 92.9275C640.421 87.4102 630.163 83.8542 623.419 77.3657C621.083 75.118 620.638 71.7582 618.49 69.3896C615.759 66.3774 611.312 65.4671 609.175 61.8148C605.987 56.3644 607 48.0427 607 42C607 27.9708 606.009 13.9644 606 0L0 0z"/>
<path style="fill:#335358; stroke:none;" d="M606 0C606.002 14.3041 607 28.634 607 43C607 48.9028 605.907 57.4064 609.175 62.6713C611.156 65.8618 615.135 66.838 617.722 69.3896C620.265 71.8973 620.747 75.6724 623.419 78.0455C630.543 84.3717 640.407 87.8688 648 93.6798C655.248 99.2268 662.66 104.454 670 109.894C671.972 111.356 675.622 115.175 678.316 113.339C683.074 110.096 681 93.0587 681 88L681 35C681 29.0965 678.947 18.3513 682.028 13.1481C685.107 7.94818 695.823 10.1125 701 9.42438C721.045 6.76013 741.807 3.86688 762 3L762 2L682 8L683 0L651 0L651 1C657.153 2.74609 675.579 4.72638 678.933 10.314C682.354 16.0135 680 30.3551 680 37C680 60.1199 685.032 90.1273 677 112C660.803 100.635 642.245 77.0458 622 74C621.076 65.7811 612.168 66.1438 610.318 58.9846C605.952 42.0867 609.371 17.4808 610 0L606 0z"/>
<path style="fill:#4f534f; stroke:none;" d="M610 0L610 39L610.318 59.9568L622 74C643.945 79.2609 657.224 102.79 677 112C681.209 103.401 680 93.322 680 84L680 34C680 28.791 682.41 12.5431 678.396 8.98456C674.823 5.81708 667.453 5.59515 663 4.2793C645.359 -0.934021 628.319 0 610 0M683 0L682 8L736 5L736 4L696 6C705.957 -0.838745 686.955 0 683 0z"/>
<path style="fill:#6a5348; stroke:none;" d="M699 0L696 5L696 6L728 4L728 3L717 3L718 0L699 0z"/>
<path style="fill:#87533f; stroke:none;" d="M717 3L759 1C750.643 -2.50677 737.059 -0.000610352 728 0C723.704 0.000305176 719.697 -0.740234 717 3z"/>
<path style="fill:#6a5348; stroke:none;" d="M759 0L760 1L759 0z"/>
<path style="fill:#87533f; stroke:none;" d="M760 0L761 1L760 0z"/>
<path style="fill:#6a5348; stroke:none;" d="M761 0L761 1L764 1L761 0z"/>
<path style="fill:#4f534f; stroke:none;" d="M755 1L755 2L767 1L755 1z"/>
<path style="fill:#335358; stroke:none;" d="M764 1L764 2L770 1L764 1z"/>
<path style="fill:#6a5348; stroke:none;" d="M750 1L750 2L755 2L750 1M739 2L739 3L748 3L739 2z"/>
<path style="fill:#4f534f; stroke:none;" d="M748 2L748 3L753 3L748 2z"/>
<path style="fill:#6a5348; stroke:none;" d="M729 3L729 4L737 4L729 3z"/>
<path style="fill:#4f534f; stroke:none;" d="M737 3L737 4L744 4L737 3z"/>
<path style="fill:#6a5348; stroke:none;" d="M664 10L664 11L675 19C679.518 10.431 670.345 10.0175 664 10M675 60C674.681 67.4356 673 73.7881 668.696 79.9576C666.771 82.7172 661.927 84.9194 661.157 88.213C659.664 94.603 672.396 106.746 677 110L677.039 80L675 60z"/>
<path style="fill:#87533f; stroke:none;" d="M675 96L675 103L676 103L675 96M676.333 104.667L676.667 105.333L676.333 104.667z"/>
<path style="fill:#335358; stroke:none;" d="M883 141L884 141C885.549 131.397 906.851 143.846 913 146.424C941.87 158.53 973.311 174.584 1004 181L1001 202L1002 202C1002 184.893 1006.76 180.74 1024 180L1024 179L1006 179C1019.25 177.255 1018.63 165.833 1023.37 156.424C1028.23 146.786 1035.07 144.043 1031 133L1044 136C1037.87 131.415 1028.27 129.897 1021 127.576C1012.69 124.923 1003.71 119.914 995 119.104C972.352 116.998 946.575 126.405 924 128.95C914.589 130.011 883.839 129.997 883 141z"/>
<path style="fill:#4f534f; stroke:none;" d="M987 120L987 121L992 121L987 120M994.667 120.333L995.333 120.667L994.667 120.333M981 121L981 122L984 122L981 121M974.667 122.333L975.333 122.667L974.667 122.333M1000.67 122.333L1001.33 122.667L1000.67 122.333M1004.67 124.333L1005.33 124.667L1004.67 124.333M1011 126L1011 127L1016 128L1016 127L1011 126M1019 129L1020 130L1019 129M1021 130L1021 131L1024 131L1021 130M1026 131L1026 132L1029 132L1026 131M1031 133C1033.28 144.581 1027.47 146.053 1022.88 156.41C1018.35 166.63 1018.53 175.092 1006 179C1011.2 182.36 1021.1 179.121 1027 178.271C1044.68 175.723 1062.46 173.401 1080 170L1078.97 148.702L1066 143.283L1031 133M894.667 134.333L895.333 134.667L894.667 134.333M1027 134L1027 135L1031 135L1027 134M881 198L882 198L882 186L887 192L888 192C896.942 188.496 906.905 204.101 917 202C919.002 207.566 922.91 208.631 928 206C929.343 213.81 939.45 213.098 945.285 216.144C959.458 223.543 970.324 231.73 983.576 240.856C986.67 242.987 990.884 242.786 993.617 245.434C999.33 250.97 992.823 264.468 1002 266L1002 265L998 265L999.961 218L1004 181C974.23 172.384 944.462 159.517 916 147.281C908.734 144.157 901.297 141.444 894 138.386C891.825 137.474 887.985 134.789 885.589 136.161C881.687 138.394 883 148.307 883 152C883 167.402 881 182.57 881 198z"/>
<path style="fill:#335358; stroke:none;" d="M1045 136L1045 137L1051 138L1045 136M1051.67 138.333L1052.33 138.667L1051.67 138.333M1054.67 139.333L1055.33 139.667L1054.67 139.333M1057 140L1057 141L1060 141L1057 140M1060 141L1060 142L1063 142L1060 141M1063 142L1063 143L1066 143L1063 142z"/>
<path style="fill:#1c535f; stroke:none;" d="M920 143C920.602 145.825 926 148.716 926 145L932 145L932 144L922 143L920 143z"/>
<path style="fill:#335358; stroke:none;" d="M1066 143L1066 144L1069 144L1066 143M1070.67 144.333L1071.33 144.667L1070.67 144.333M1072 145L1072 146L1075 146L1072 145M1075 146L1075 147L1078 147L1075 146M882 147L882 168L883 168L882 147z"/>
<path style="fill:#1c535f; stroke:none;" d="M931 147L936 150C935.346 146.946 933.993 147.064 931 147z"/>
<path style="fill:#335358; stroke:none;" d="M1078.67 147.333L1079.33 147.667L1078.67 147.333z"/>
<path style="fill:#1c535f; stroke:none;" d="M936 151L936 152L955 156C949.184 151.693 943.039 151.005 936 151M960 160L960 161L963 161L960 160M966.667 160.333L967.333 160.667L966.667 160.333z"/>
<path style="fill:#6a5348; stroke:none;" d="M1072.67 169.333L1073.33 169.667L1072.67 169.333M965 170L966 171L965 170M1067.67 170.333L1068.33 170.667L1067.67 170.333z"/>
<path style="fill:#335358; stroke:none;" d="M1072 171L1072 172L1080 171L1072 171M881 171L881 178L882 178L881 171z"/>
<path style="fill:#1c535f; stroke:none;" d="M999 265L1023 264L1023 265C998.762 266.98 973.995 273.083 950 277.25C944.303 278.239 928.711 277.994 925.028 282.728C923.109 285.193 924 290.085 924 293C924 301.054 923.003 308.973 923 317C922.989 345.679 920.138 374.295 919.999 403C919.49 508.62 911 614.224 911 720L1080 720L1080 171L1028 178.95L1004.56 183.738L1001.17 204L999 265z"/>
<path style="fill:#335358; stroke:none;" d="M1064 172L1064 173L1070 173L1064 172z"/>
<path style="fill:#6a5348; stroke:none;" d="M972 173L973 174L972 173z"/>
<path style="fill:#335358; stroke:none;" d="M1059 173L1059 174L1064 174L1059 173M824 182L824 183L827 183L827 184L775 197.401L761 198C770.398 207.664 787.021 213.257 799 219.247C822.755 231.124 846.133 243.769 870 255.409C879.602 260.092 895.654 264.433 903 272C908.186 272.801 919.339 276.288 921.972 281.094C924.165 285.097 923 291.581 923 296C922.999 307.99 922 319.958 922 332L923 332C923 320.285 924 308.672 924 297C924 293.096 922.61 285.774 925.603 282.728C930.492 277.752 948.217 277.292 955 277L955 276C939.096 276.328 926.691 283.814 918 266L914 267L913 264L909 266C908.052 262.898 907.251 262.134 904 262C901.937 258.188 899.349 256.349 895 257C892.342 252.537 887.107 250.704 884.782 245.871C876.431 228.517 881 209.346 881 191L880 191L880 210L847 208L846 212L845 212L845 206L840 205L841 209L840 209L838 197L842 192L865 184L865 183L861 183L861 182C866.89 181.239 877.906 180.376 880 174L824 182z"/>
<path style="fill:#6a5348; stroke:none;" d="M976 174L976 175L979 176L976 174z"/>
<path style="fill:#335358; stroke:none;" d="M1052 174L1052 175L1057 175L1052 174M1045 175L1045 176L1051 176L1045 175M1040 176L1040 177L1044 177L1040 176M1032 177L1032 178L1037 178L1032 177M536 179L536 180L550 179L536 179z"/>
<path style="fill:#4f534f; stroke:none;" d="M489 220C475.477 215.071 463.56 219.474 450 220.829C424.098 223.419 393.501 228.832 368 223L374 274L375 274L375 272L376 272L380.982 311L385 327C382.748 335.209 387.895 346.702 389.551 355C393.796 376.267 399.391 400.205 394.39 421.015C393.271 425.667 394.224 435 390.528 438.397C385.28 443.219 370.976 444.577 364 445.089C356.724 445.622 349.282 447.039 342 446L342 447L344 447L344 448L268 451.91L215 451L223.169 517L228 571L232 569L229 552L229 551L231 544L228 546L232 517L237 518L236 544L232 544L232 546L237 546L244 594C235.061 588.704 230.26 592.5 221 594.761C205.181 598.623 185.57 598.688 171 606L169 626L160 625L160 630L155 624L164 621L164 620L156 619L155 623L140 619L143 620L145 624C145 621.564 145.786 622.385 148 623L141 629L138 626C135.471 635.75 128.325 646.793 119 651L117 648L114 656L114 657L118 656L117 660L110 656L114 664L114 661L122 661C120.676 667.059 117.797 670.673 112 673L113 670L104 672L104 673L106 677L118 680L118 681L118 690C121.393 689.006 122.667 689.328 125 692L117 692L118 697L116 686L112 688L112 684L111 684L112 689L108 690C105.593 683.859 102.177 682.875 96 684L96 688L95 688L96 680L93 684L89 682L91 687L91 688L88 689L95 690L101 689L98 692L98 693L101 696L103 690L104 690L104 694L108 691L113 697L104 701L104 697L103 697C102.355 700.616 103.496 702.01 107 703L107 704C97.2508 704.778 102.256 718.716 109.019 719.772C129.966 723.042 153.786 720 175 720C182.286 720 195.079 722.483 201.721 719.397C206.496 717.178 204.818 711.811 200 712C201.016 707.484 199.132 705.655 195 704L195 700C213.737 698.867 232.402 698.198 251 696.05C259.523 695.066 268.67 693.594 270 684C274.975 683.333 279.673 680.537 282 676C278.206 673.024 276.559 672.428 272 674L273 671L271 667L274 668L272 665L272 657L276 657L276 656L272 655L271 659L270 659L269 657L269 656C274.1 651.708 267.717 638.616 268 632L272 634L273 622L272 622L272 626L271 626L270 621L263 622L259 619C257.47 611.06 248.397 601.572 250.777 593.044C252.608 586.482 275.714 582.587 282 580L282 576L283 576L283 581L284 581L281.09 548L279.246 526.004L264 498L270 506L277 515L277 516L277 517L280 516L281 520L279 519L280 523L282 523L281 525L316 519L316 518L311 518L311 517L322 516L322 517L317 517L317 518L333 516L333 515L328 515L328 514L338 513L338 514L334 514L334 515L344 514L344 513L338 513L338 512L354 507L353 509L354 509C361.632 506.419 373.279 508.102 376 499L384 499L384 485C375.163 472.94 369.647 476.718 356 477L356 475L364 475L364 473L360 473L360 472L365 472L364 463C371.959 461.744 395.346 452.557 399.91 445.786C404.244 439.357 404.459 427.524 407 420L416 422C422.882 416.774 442.062 417.832 449 422L448 417L455 417L434.514 393.325L428 384L428 383C422.085 379.741 423.166 368.171 423.015 362C422.516 341.638 421 321.387 421 301L420 301L422 368L421 368L420 364L419 364L419 368L418 368C417.999 362.865 418.767 356.916 413 355L413.772 338.039L410.758 330.13L414 288L417 289L416 284L417 284L417 287L418 287L418 284L419 284L419 300L420 300L418.982 277.174L406.88 263.486L376 233C387.837 235.464 400.854 254.69 410 262.715C413.621 265.893 418.325 268.954 419 274C443.987 267.844 474.273 263.531 500 263L500 262L461 266L461 265C468.846 263.982 483.584 259.236 485.177 249.995C486.087 244.724 482.698 239.495 484.154 234.019C485.135 230.331 489.01 229.217 490.397 225.871C493.032 219.512 492.857 207.945 493 201L494 201L494 205L495 205L495 201L501 200L498 195C507.542 199.014 521.562 208.484 526 218L527 218L527 215L573 210L573 209L550 211L550 209L588 206L585 207L585 208L590 208L563 186.424L551 178.719L516 182.576L491.603 186.603L490.91 198L489 220z"/>
<path style="fill:#335358; stroke:none;" d="M552.667 178.333L553.333 178.667L552.667 178.333z"/>
<path style="fill:#6a5348; stroke:none;" d="M984 178L984 179L989 180L984 178z"/>
<path style="fill:#335358; stroke:none;" d="M1025 178L1025 179L1032 179L1025 178M554 179L555 180L554 179M528 180L528 181L534 181L528 180M555 180L556 181L555 180z"/>
<path style="fill:#6a5348; stroke:none;" d="M989 181L989 182L1000 184C996.74 180.85 993.395 179.902 989 181z"/>
<path style="fill:#335358; stroke:none;" d="M520 181L520 182L526 182L520 181M556 181L557 182L556 181M512 182L512 183L517 183L512 182M557.667 182.333L558.333 182.667L557.667 182.333z"/>
<path style="fill:#4f534f; stroke:none;" d="M830.667 182.333L831.333 182.667L830.667 182.333z"/>
<path style="fill:#335358; stroke:none;" d="M502 183L502 184L509 184L502 183M559 183L560 184L559 183M816 183L816 184L821 184L816 183z"/>
<path style="fill:#4f534f; stroke:none;" d="M748 194L749 251C760.838 253.85 760.951 274.493 762.439 284C764.788 299.003 765.957 313.722 764.911 329C763.513 349.405 758.828 370.522 766 390C746.763 381.312 725.642 391.222 707 380L709 383L706 382L706 383L720 389L720 390L718 390L718 391L721 390L721 408L722 408L722 390C734.442 395.028 748.32 389.537 761 390.458C766.758 390.876 771.35 395.774 777 397L769.063 383.424L772.086 361L774 328L775 328L776 336L779 336L782 327L783 336L780 336L780 337L784 340L786 336L783 345L792 348L794 360L798 363L819 375C818.373 379.083 820.216 379.638 824 379L821 384L826 384C827.316 395.187 839.02 406.043 846.167 414.333C848.24 416.739 849.856 422.526 848 425C850.631 427.184 852.789 428.73 851 432L851 433L855 434L851 437L851 438L854 440L843 441L843 442L845 443L844 446L832 439L832 440L834 444C845.799 445.577 846.142 455.613 848.475 465C850.99 475.117 854.022 484.295 859.884 493C877.695 519.448 879.012 551.354 882.313 582C885.135 608.202 891.48 633.902 894.851 659.985C897.395 679.667 896.723 700.798 901 720C916.159 719.988 911 701.631 911 690L910 690L910 711L903 684L898.741 655L892.775 613L888 592L888 591C892.148 586.395 887.24 572.612 886.248 567C882.073 543.362 882.116 518.795 874 496L870 496C869.483 488.207 864.83 484.392 860.207 478.711C858.907 477.114 855.464 473.341 857.041 471.09C859.112 468.134 863.841 472.707 866.036 473.426C873.771 475.961 879.192 485.508 888 481L888 485L891 484L891 482L888 479L897 477C901.135 482.732 904.521 474.797 908 472L911 464L911 463L909 460C916.791 456.471 916 443.371 916 436L917 436L917 451L918 451C918 405.941 921.928 361.023 922 316C922.031 296.902 929.611 273.818 903 272C900.449 268.041 894.341 266.979 890.166 264.948C881.43 260.699 872.634 256.388 864 251.895C830.458 234.44 791.646 220.2 761 198L827 184L805 185.869L748 194z"/>
<path style="fill:#1c535f; stroke:none;" d="M853 183L853 184L856 184L853 183z"/>
<path style="fill:#6a5348; stroke:none;" d="M882 183L883 184L882 183z"/>
<path style="fill:#335358; stroke:none;" d="M492 184L492 185L501 185L492 184M560 184L561 185L560 184M810 184L810 185L813 185L810 184M490 185L490 187L492 185L490 185M561.667 185.333L562.333 185.667L561.667 185.333M803 185L803 186L808 186L803 185M563 186L564 187L563 186M796 186L796 187L801 187L796 186z"/>
<path style="fill:#6a5348; stroke:none;" d="M882 186C882 192.228 878.819 203.095 882.318 208.529C887.248 216.186 906.746 221.434 915 225C941.078 236.267 965.838 251.05 992 262L992 265L992 266L989 267L1002 268L1002 267C992.975 261.936 1000.83 250.45 993.652 244.742C991 242.632 987.25 242.802 984.424 240.856C970.881 231.529 959.888 223.107 945.285 215.665C939.299 212.615 930.352 213.52 928 206C922.733 207.96 919.781 207.067 917 202C909.944 202.809 903.038 197.113 897 193.87C894.156 192.342 890.691 189.443 888 192L887 192L882 186z"/>
<path style="fill:#335358; stroke:none;" d="M489 187L490 207L491 207L489 187M564 187L568 190L564 187M790 187L790 188L795 188L790 187M784 188L784 189L787 189L784 188M777 189L777 190L781 190L777 189M568 190L569 191L568 190M771 190L771 191L775 191L771 190z"/>
<path style="fill:#6a5348; stroke:none;" d="M495 191L496 192L495 191z"/>
<path style="fill:#335358; stroke:none;" d="M569 191L570 192L569 191M763 191L763 192L766 192L763 191z"/>
<path style="fill:#4f534f; stroke:none;" d="M805 191L805 192L808 192L805 191z"/>
<path style="fill:#335358; stroke:none;" d="M571 192L572 193L571 192M658 192L658 193L661 193L658 192z"/>
<path style="fill:#4f534f; stroke:none;" d="M625 197L625 296L626 296L626 256L627 256L627 262L628 262L628 250L626 251L626 247L628 248L628 235L629 235L629 252L630 252C630 234.292 636.258 214.204 626 199L640.972 210.093L642 228L642 269L643 269L643 208L658 208L658 207L649 207L649 206L665 196L668 197L668 196L665 193L672 196C662.277 187.02 637.421 196.467 625 197z"/>
<path style="fill:#335358; stroke:none;" d="M667 192L668 193L667 192M757 192L757 193L760 193L757 192z"/>
<path style="fill:#4f534f; stroke:none;" d="M798.667 192.333L799.333 192.667L798.667 192.333z"/>
<path style="fill:#335358; stroke:none;" d="M572 193L573 194L572 193M651 193L651 194L656 194L651 193z"/>
<path style="fill:#6a5348; stroke:none;" d="M665 193L668 196L668 197L665 196L649 206L649 207L671 206L671 205L668 204L681 202L681 201L665 193z"/>
<path style="fill:#335358; stroke:none;" d="M669 193L670 194L669 193M749 193L749 194L754 194L749 193M573 194L576 196L573 194M643 194L643 195L648 195L643 194M670 194L671 195L670 194z"/>
<path style="fill:#6a5348; stroke:none;" d="M498 195L501 200L495 201L495 205L494 205L494 201L493 201C492.706 207.845 492.889 218.64 490.397 224.946C489.04 228.379 484.956 229.493 483.85 233.054C482.085 238.74 485.827 244.457 484.705 249.995C482.898 258.918 468.631 263.498 461 265L461 266L504 261.285L520 258C514.692 257.957 506.658 252.075 505 247C498.456 247.234 492.371 233.695 493.333 228C494.507 221.057 500.05 222.441 503 227C508.193 227.156 511.073 228.728 514 233C517.408 233.381 518.187 234.748 519 238L523 245L524 245L524 238L525 238L525 242C533.47 221.816 517.744 200.121 498 195z"/>
<path style="fill:#335358; stroke:none;" d="M636 195L636 196L640 196L636 195z"/>
<path style="fill:#6a5348; stroke:none;" d="M749 195L749 215L750 215C750.005 208.326 752.732 198.792 760 207L768 206L773 211L776 210L779 212L777 215L781 215L781 216L786 215C788.57 220.092 798.394 223.241 804 224L785.996 213.881L749 195z"/>
<path style="fill:#335358; stroke:none;" d="M576 196L577 197L576 196M626 196L626 197L631 197L626 196z"/>
<path style="fill:#4f534f; stroke:none;" d="M673 196L674 197L673 196z"/>
<path style="fill:#335358; stroke:none;" d="M577 197L578 198L577 197M624 197L624 272C624 279.625 626.704 293.791 622 300L622 301C627.788 297.248 625 282.338 625 276L625 222C625 214.52 626.903 203.919 624 197z"/>
<path style="fill:#4f534f; stroke:none;" d="M674 197L675 198L674 197z"/>
<path style="fill:#335358; stroke:none;" d="M675 197L676 198L675 197M759 197L760 198L759 197z"/>
<path style="fill:#1c535f; stroke:none;" d="M829 197L829 199L831 197L829 197z"/>
<path style="fill:#335358; stroke:none;" d="M578.667 198.333L579.333 198.667L578.667 198.333M630 198L633 201L630 198z"/>
<path style="fill:#4f534f; stroke:none;" d="M676 198L677 199L676 198z"/>
<path style="fill:#335358; stroke:none;" d="M580 199L581 200L580 199z"/>
<path style="fill:#6a5348; stroke:none;" d="M626 199L631.656 210L630 252L629 252L629 235L628 235L628 248L626 247L626 251L628 250L628 262L627 262L627 256L626 256L625 308L615 303L616 357L627 357L618 376L622 376L621 380L619 379L618 379L619 382L623 383L623 384L624 393L637 398L642 402L642 400L645 401L652 390L652 389L650 387L656 387L654 390C657.729 390.293 658.922 391.258 658 395L652 392L650 401L671.576 398.849L720 390L720 389L706 383L706 382L709 383L679 359.339L665.286 350.37L624 355L624 354C634.677 350.992 636.364 326.316 633 318L639 320L640 285L641 285L641 323L642 323L642 244L641.397 210.093L626 199z"/>
<path style="fill:#335358; stroke:none;" d="M678 199L679 200L678 199M582 200L583 201L582 200z"/>
<path style="fill:#87533f; stroke:none;" d="M668 204L668 205L682 204C678.315 198.451 672.789 201.392 668 204z"/>
<path style="fill:#335358; stroke:none;" d="M583 201L584 202L583 201z"/>
<path style="fill:#4f534f; stroke:none;" d="M681 201L682 202L681 201z"/>
<path style="fill:#335358; stroke:none;" d="M584 202L585 203L584 202z"/>
<path style="fill:#4f534f; stroke:none;" d="M682 202L680 204L680 205L684 205L682 202z"/>
<path style="fill:#335358; stroke:none;" d="M585 203L586 204L585 203z"/>
<path style="fill:#6a5348; stroke:none;" d="M680 203L681 204L680 203M682 203L683 204L682 203z"/>
<path style="fill:#4f534f; stroke:none;" d="M760 203L760 205L762 205L760 203z"/>
<path style="fill:#335358; stroke:none;" d="M587 204L588 205L587 204z"/>
<path style="fill:#6a5348; stroke:none;" d="M674 204L674 205L680 205L674 204z"/>
<path style="fill:#335358; stroke:none;" d="M1000 204L1000 216L1001 216L1000 204z"/>
<path style="fill:#6a5348; stroke:none;" d="M550 209L550 211C560.296 210.558 579.212 211.264 588 206C575.52 202.638 562.342 207.924 550 209z"/>
<path style="fill:#335358; stroke:none;" d="M588 205L589 206L588 205z"/>
<path style="fill:#4f534f; stroke:none;" d="M671 205L671 206L674 206L671 205z"/>
<path style="fill:#335358; stroke:none;" d="M674 205L674 206L677 206L674 205M664 225L669 227L669 229L664 231L664 232L669 232C667.732 236.842 666.807 244.342 671 248L670 253L672 251L673 251L677 291L674 290L677 300L674 301L668 312L666 309L656 311L659 314L647 320L647 321L672 318.286L681.972 315.566L683 303L691 302L687 298L689 302L683 302L685 216L684 216L684 237L683 237L682 206L685 207C676.25 197.155 666.683 220.475 664 225M589 206L590 207L589 206z"/>
<path style="fill:#4f534f; stroke:none;" d="M661 206L661 207L666 207L661 206z"/>
<path style="fill:#335358; stroke:none;" d="M666 206L666 207L669 207L666 206z"/>
<path style="fill:#4f534f; stroke:none;" d="M682 206L683 237L684 237C684 230.086 687.855 209.799 682 206z"/>
<path style="fill:#6a5348; stroke:none;" d="M588 207L589 208L588 207M644.667 207.333L645.333 207.667L644.667 207.333z"/>
<path style="fill:#335358; stroke:none;" d="M658.667 207.333L659.333 207.667L658.667 207.333M672 207L673 208L672 207z"/>
<path style="fill:#4f534f; stroke:none;" d="M881 207C879.311 220.08 877.947 235.499 885.224 247.541C887.594 251.464 892.032 253.596 895 257L904 262L909 266L913 264L914 267L918 266C919.191 270.037 924.702 277.699 929.055 278.656C935.959 280.174 944.153 277.28 951 276.272C966.674 273.963 982.284 270.988 998 269L998 268L989 267L992 266L992 265L990 264L992 262C968.876 248.363 943.383 237.512 919 226.309C907.075 220.829 890.343 216.399 881 207z"/>
<path style="fill:#335358; stroke:none;" d="M489 208C484.425 212.159 473.23 210.64 467 211.804C444.386 216.03 419.989 218.405 397 219.975C390.317 220.432 368.173 219.452 366 226L367 226L368 223C379.807 226.751 389.956 224.915 402 224.09C418.639 222.949 435.476 222.858 452 220.711C465.217 218.993 475.771 216.5 489 220L489 208z"/>
<path style="fill:#4f534f; stroke:none;" d="M574 208L574 209L583 209L574 208z"/>
<path style="fill:#335358; stroke:none;" d="M583 208L583 209L590 210L583 208M643 208L644 209L643 208M648 208L648 209L652 209L648 208M573 209L573 210L580 210L573 209M644 209L645 210L644 209M565 210L565 211L572 211L565 210z"/>
<path style="fill:#6a5348; stroke:none;" d="M769 210L770 211L769 210z"/>
<path style="fill:#335358; stroke:none;" d="M557 211L557 212L564 212L557 211M585.667 211.333L586.333 211.667L585.667 211.333M588 211L585 214L585.607 246.985L589.386 263L590 280L590 281L592.003 301L593 336L594 336L593.884 285L593 250L590 251L590 211L588 211M549 212L549 213L555 213L549 212M663 212L662 214L664 214L663 212M541 213L541 214L547 214L541 213M684.333 213.667L684.667 214.333L684.333 213.667M531 214L531 215L539 215L531 214M527 217L531 216L527 217M526 218L527 219L526 218z"/>
<path style="fill:#4f534f; stroke:none;" d="M526 219L526 245L527 245L526 219z"/>
<path style="fill:#87533f; stroke:none;" d="M505 247C506.855 256.545 518.111 258.524 526 258L525 238L524 238L524 245L523 245C522.803 241.431 522.538 239.243 519 238C518.436 234.474 517.642 233.164 514 233C511.768 228.294 508.186 226.349 503 227C500.479 222.572 495.262 220.892 493.583 227.079C491.677 234.099 497.345 246.169 505 247z"/>
<path style="fill:#1c535f; stroke:none;" d="M671 222L673 225L671 222z"/>
<path style="fill:#335358; stroke:none;" d="M999 222L999 236L1000 236L999 222z"/>
<path style="fill:#6a5348; stroke:none;" d="M796.667 223.333L797.333 223.667L796.667 223.333z"/>
<path style="fill:#335358; stroke:none;" d="M656 224L657 225L656 224z"/>
<path style="fill:#6a5348; stroke:none;" d="M805.667 224.333L806.333 224.667L805.667 224.333z"/>
<path style="fill:#1c535f; stroke:none;" d="M815 225L816 226L815 225z"/>
<path style="fill:#6a5348; stroke:none;" d="M808.667 226.333L809.333 226.667L808.667 226.333z"/>
<path style="fill:#335358; stroke:none;" d="M367 227L376 356L377 356L377 336L378 336L388.463 413L386 432C377.438 432.249 368.654 435.651 360 436.714C339.46 439.236 316.653 441.52 296 440L296 439L312 437L312 436C279.763 436.004 246.1 445.943 214 450L220.83 523L227 592L223 593L223 594C231.903 592.468 235.258 590.426 244 594L240.014 573L237 546L232 546L232 544L236 544L237 518L232 517L228 546L231 544L229 551L229 552L232 569L228 571L219.679 488.424L215 451L344 448L344 447L342 447L342 446C348.976 447.517 356.938 445.853 364 445.17C370.979 444.494 386.219 443.643 391.247 438.397C394.743 434.749 393.201 425.727 394.647 421.015C400.8 400.977 393.673 374.654 389.551 354C387.898 345.718 383.397 335.33 385 327L381.24 310.004L376 272L375 272L375 274L374 274C376.645 262.49 372.575 237.524 367 227z"/>
<path style="fill:#6a5348; stroke:none;" d="M811 227L814 229L811 227M968 227L969 228L968 227z"/>
<path style="fill:#335358; stroke:none;" d="M662 228L664 230L664 228L662 228z"/>
<path style="fill:#1c535f; stroke:none;" d="M672 229L673 230L672 229z"/>
<path style="fill:#6a5348; stroke:none;" d="M808 229L808 231L810 231L808 229M816 229L821 233L816 229z"/>
<path style="fill:#1c535f; stroke:none;" d="M826 229L827 230L826 229z"/>
<path style="fill:#6a5348; stroke:none;" d="M374 230L375 231L374 230z"/>
<path style="fill:#4f534f; stroke:none;" d="M631.333 230.667L631.667 231.333L631.333 230.667z"/>
<path style="fill:#1c535f; stroke:none;" d="M831 231L831 232L834 232L831 231z"/>
<path style="fill:#6a5348; stroke:none;" d="M376 233L417 275L419 275C419.227 268.741 414.312 265.686 410 261.834C402.457 255.096 395.124 248.242 388.039 241.015C384.477 237.381 381.378 232.875 376 233z"/>
<path style="fill:#335358; stroke:none;" d="M527 232L528 257L529 257L527 232z"/>
<path style="fill:#1c535f; stroke:none;" d="M672 232L673 233L672 232M828.667 232.333L829.333 232.667L828.667 232.333M847 232C847.732 239.42 838.645 234.982 834 234L834 235L841 236C844.224 241.668 866.117 255.551 871 249L863 245L867 246L858 237L857 240L856 240L856 237L850 241C850.979 236.942 850.113 234.748 847 232M831 233L832 234L831 233z"/>
<path style="fill:#6a5348; stroke:none;" d="M824 234L824 235L828 236L828 235L824 234z"/>
<path style="fill:#335358; stroke:none;" d="M998 237L998 257L999 257L998 237z"/>
<path style="fill:#4f534f; stroke:none;" d="M682 238L682 245L683 245L682 238z"/>
<path style="fill:#6a5348; stroke:none;" d="M520.333 240.667L520.667 241.333L520.333 240.667z"/>
<path style="fill:#1c535f; stroke:none;" d="M673 243L673 245L675 245L673 243z"/>
<path style="fill:#6a5348; stroke:none;" d="M526 245L526 258L521 258L521 259L527 259L526 245z"/>
<path style="fill:#1c535f; stroke:none;" d="M672 248L675 248L674 246L672 248z"/>
<path style="fill:#335358; stroke:none;" d="M748 248L749 255C759.387 258.273 757.261 278.651 758.286 287C762.274 319.47 750.434 354.769 761 386C746.556 381.123 729.178 383.115 714 384L714 385L766 390C765.188 386.133 762.612 382.87 762.083 379C760.003 363.764 763.406 346.181 764.917 331C766.568 314.407 764.529 298.336 762.222 282C760.777 271.766 760.396 261.964 754.139 253.028C752.473 250.649 749.827 250.143 748 248z"/>
<path style="fill:#4f534f; stroke:none;" d="M527 256L527 259L528 259L527 256M520 259L520 260L524 260L520 259z"/>
<path style="fill:#335358; stroke:none;" d="M524 259L524 260L528 260L524 259z"/>
<path style="fill:#4f534f; stroke:none;" d="M512 260L512 261L516 261L512 260z"/>
<path style="fill:#335358; stroke:none;" d="M516 260L516 261L522 261L516 260M998 260L998 265L999 265L998 260z"/>
<path style="fill:#4f534f; stroke:none;" d="M502 261L502 262L508 262L502 261z"/>
<path style="fill:#335358; stroke:none;" d="M508 261L508 262L513 262L508 261M500 262L500 263L505 263L500 262M493 263L493 264L498 264L493 263z"/>
<path style="fill:#4f534f; stroke:none;" d="M992 263L993 264L992 263z"/>
<path style="fill:#6a5348; stroke:none;" d="M456 264L457 265L456 264z"/>
<path style="fill:#335358; stroke:none;" d="M485 264L485 265L489 265L485 264M918.667 264.333L919.333 264.667L918.667 264.333M1006 264L1006 265L1010 265L1006 264z"/>
<path style="fill:#4f534f; stroke:none;" d="M1010 264L1010 265L1012 265L1012 266L1009 266L1009 267L1016 265L1010 264z"/>
<path style="fill:#335358; stroke:none;" d="M1015 265L1015 266L1023 265L1015 265M477 265L477 266L483 266L477 265z"/>
<path style="fill:#6a5348; stroke:none;" d="M1002 265L1002 266L1012 266L1002 265z"/>
<path style="fill:#87533f; stroke:none;" d="M1008 265L1009 266L1008 265z"/>
<path style="fill:#6a5348; stroke:none;" d="M459.667 266.333L460.333 266.667L459.667 266.333z"/>
<path style="fill:#335358; stroke:none;" d="M471 266L471 267L475 267L471 266z"/>
<path style="fill:#87533f; stroke:none;" d="M1000 266L1000 267L1006 267L1000 266z"/>
<path style="fill:#335358; stroke:none;" d="M1012 266L1012 267L1015 267L1012 266M463 267L463 268L468 268L463 267z"/>
<path style="fill:#4f534f; stroke:none;" d="M1002 267L1002 268L1005 268L1002 267z"/>
<path style="fill:#335358; stroke:none;" d="M1005 267L1005 268L1008 268L1005 267z"/>
<path style="fill:#6a5348; stroke:none;" d="M443 268L443 269L448 269L443 268z"/>
<path style="fill:#335358; stroke:none;" d="M456 268L456 269L460 269L456 268M998 268L998 269L1001 269L998 268M448 269L448 270L453 270L448 269M642 269C642 285.807 638.242 307.902 643 324L644 324C639.971 307.076 648.654 284.858 642 269M994.667 269.333L995.333 269.667L994.667 269.333M441 270L441 271L446 271L441 270M987 270L987 271L991 271L987 270M434 271L434 272L438 272L434 271M981 271L981 272L985 272L981 271M426 272L426 273L431 273L426 272M975 272L975 273L979 273L975 272M420 273L420 274L424 274L420 273z"/>
<path style="fill:#4f534f; stroke:none;" d="M919 273L918 275L920 275L919 273z"/>
<path style="fill:#335358; stroke:none;" d="M927.333 273.667L927.667 274.333L927.333 273.667M969 273L969 274L973 274L969 273M419 274L419 279L420 279L419 274M962 274L962 275L968 275L962 274M956 275L956 276L962 276L956 275z"/>
<path style="fill:#6a5348; stroke:none;" d="M417 276L416 278L418 278L417 276z"/>
<path style="fill:#4f534f; stroke:none;" d="M627.333 278.667L627.667 279.333L627.333 278.667z"/>
<path style="fill:#6a5348; stroke:none;" d="M770 278L771 286L772 286L770 278M416 279L417 282L418 282L419 279L416 279z"/>
<path style="fill:#335358; stroke:none;" d="M745 280L745 288L728 293L715 290.737L696 283L699 285C700.065 291.466 708.115 295.88 704 303L704 304C709.443 309.969 710.959 314.586 720 315L725 331L726 331C727.324 323.87 725.862 312.112 730.009 306.144C733.812 300.672 739.752 303.825 744.682 301.397C749.796 298.878 746.934 284.025 745 280z"/>
<path style="fill:#6a5348; stroke:none;" d="M416 284L417 289L414 288L410.404 330.13L413.769 339.015L413 355C418.182 357.802 417.996 362.656 418 368L419 368L419 364L420 364L421 368L422 368L419 284L418 284L418 287L417 287L416 284z"/>
<path style="fill:#87533f; stroke:none;" d="M640 285C640 296.251 633.898 309.784 639 320L633 318C635.644 327.569 634.618 349.126 624 354L624 355L641.972 352.397L643 337L641 306L640 285z"/>
<path style="fill:#335358; stroke:none;" d="M420 287L420 301L421 301L420 287M672 287L673 288L672 287M560 288L560 292L561 292L560 288z"/>
<path style="fill:#4f534f; stroke:none;" d="M417 290L417 296L418 296L417 290z"/>
<path style="fill:#335358; stroke:none;" d="M567 292C565.44 296.736 561.359 302.3 560 294L555 295L557 297C555.252 300.128 557.155 301.396 560 303L560 304C555.778 304.695 553.277 306.92 552 311L544 311L544 312L548 312L548 320L545 320L547 329L536 328L548 334L552 330C556.07 344.031 569.816 331.692 577 330L578 329C577.462 323.086 580.454 317.771 580.528 312C580.572 308.58 578.497 305.409 578.1 302.004C577.393 295.922 574.793 290.737 568 294L567 292z"/>
<path style="fill:#4f534f; stroke:none;" d="M709 293C711.972 300.489 720.382 303.858 728 305C724.026 298.313 716.809 293.406 709 293z"/>
<path style="fill:#1c535f; stroke:none;" d="M570 296L570 297L573 297L570 296z"/>
<path style="fill:#4f534f; stroke:none;" d="M744 296L746 300L746 296L744 296M683 297L683 300L684 300L685 297L683 297z"/>
<path style="fill:#335358; stroke:none;" d="M685 297L686 298L685 297z"/>
<path style="fill:#6a5348; stroke:none;" d="M683 301L688 301C685.848 298.854 684.924 298.539 683 301z"/>
<path style="fill:#4f534f; stroke:none;" d="M686 298L687 299L686 298M687 299L688 300L687 299M624 300L615 302L615 303L625 308L624 300M688 300L683 301L683 302L688 300z"/>
<path style="fill:#335358; stroke:none;" d="M615 301L615 302L620 302L615 301z"/>
<path style="fill:#4f534f; stroke:none;" d="M417.333 302.667L417.667 303.333L417.333 302.667z"/>
<path style="fill:#1c535f; stroke:none;" d="M572 302L572 304L576 304L576 302L572 302z"/>
<path style="fill:#335358; stroke:none;" d="M614 302L614 344L615 344C615 332.043 618.611 312.988 614 302M671 303L672 304L671 303z"/>
<path style="fill:#4f534f; stroke:none;" d="M615 304L615 358L585 362L585 363L591 363L591 364L587 364L587 368C590.19 371.977 585.98 374.974 583 378L584 373L583 373L580 378L560 376L560 378L547 373L547 374L549 376L542 376C541.416 372.423 534.175 373.174 531 373L531 374L533 374L533 375L526 374L526 375L529 375L529 376L515 374L515 375L518 375L518 376L480 379.714L435 382L435 383L440 385C448.804 379.308 469.564 383 480 383C480 393.78 484.458 411.339 472 415L472 410L467 409L467 408L472 408L472 407L464 405L461 406L459 400C454.727 406.257 460.288 410.689 461 417L466 418L463 418L465 420L464 424C460.061 423.599 459.299 425.243 459 429C467.072 430.272 477.561 443.813 481 451L480 451L472 444L463 461L469 465L463 466L463 474L464 474L464 469L472 473C463.751 476.64 466.546 489.031 469 496C452.251 509.53 491.091 527.565 464 534L473.561 585L483 678L486.826 707L487.194 718.397L495 720C495 686.732 486.193 654.087 482.831 621C481.757 610.429 475.156 592.941 479 583L476 572C487.792 573.915 485.055 589.658 496 595L493 584L488 584L488 577L496 576L496 581L490 580L490 581L496 584L497 584L498 574L499 574L500 581L503 576L504 576L504 580L509 579C509.064 581.993 508.946 583.346 512 584L512 585L505 585L505 586L513 587C515.353 591.509 517.732 595.856 516 601L518 608L522 608L519 617L523 616L520 624L520 625L524 626L522 630L529 629L526 628L529 626L530 626L529 580L530 580L531 604L532 604C532 559.501 527.213 515.288 526.999 471C526.949 460.521 526.628 449.479 525.911 439C525.655 435.275 523.694 429.827 526.028 426.434C529.539 421.328 548.899 421.194 555 420.001C583.578 414.413 614.93 406.252 644 405L644 404L640 404L640 403L661 402L661 401L650 401L652 392L658 395C659.338 391.055 658.141 389.637 654 390L656 387L650 387L652 389L652 390L645 401L642 400L642 402L637 398L624 393L623 384L623 383L618 379L621 380L622 376L618 376L627 357L616 357L616 321L615 304z"/>
<path style="fill:#335358; stroke:none;" d="M421 309L421 324L422 324L421 309z"/>
<path style="fill:#6a5348; stroke:none;" d="M774 310L777 312L774 310z"/>
<path style="fill:#4f534f; stroke:none;" d="M416 311L417 312L416 311z"/>
<path style="fill:#1c535f; stroke:none;" d="M662.667 312.333L663.333 312.667L662.667 312.333M576 314L577 315L576 314z"/>
<path style="fill:#6a5348; stroke:none;" d="M775.333 314.667L775.667 315.333L775.333 314.667z"/>
<path style="fill:#335358; stroke:none;" d="M665 329L660 326L656 327L656 328L659 329L656 330L656 328C650.263 330.079 647.806 335.208 647 341L646 341L646 336L645 336L645 352C651.287 351.73 658.858 348.345 665 349.519C678.243 352.051 690.449 369.355 702 376L694 368L699 368L699 369L697 370L704 370L705 376L706 376C710.495 357.119 708 335.325 708 316C697.159 316 687.295 318.171 677.004 321.502C671.493 323.286 666.746 322.676 665 329z"/>
<path style="fill:#1c535f; stroke:none;" d="M575 317L575 320L576 320L575 317z"/>
<path style="fill:#87533f; stroke:none;" d="M632 317L633 318L632 317z"/>
<path style="fill:#6a5348; stroke:none;" d="M774 319L775 328L778 328L778 320L774 319z"/>
<path style="fill:#335358; stroke:none;" d="M644.333 320.667L644.667 321.333L644.333 320.667M539 322L539 326L544 325L544 323L539 322z"/>
<path style="fill:#4f534f; stroke:none;" d="M642 323L643 324L642 323z"/>
<path style="fill:#335358; stroke:none;" d="M663 323L664 324L663 323z"/>
<path style="fill:#1c535f; stroke:none;" d="M575.333 324.667L575.667 325.333L575.333 324.667z"/>
<path style="fill:#4f534f; stroke:none;" d="M643 324L643 353L648 353L648 352L644 352L643 324z"/>
<path style="fill:#335358; stroke:none;" d="M646.333 325.667L646.667 326.333L646.333 325.667M663 325L662 327L664 327L663 325M650.667 327.333L651.333 327.667L650.667 327.333z"/>
<path style="fill:#6a5348; stroke:none;" d="M780 327L779 336L776 336L775 328L774 328C773.612 348.905 761.861 380.73 777 397L761 390.235L722 390L722 417L723 414C730.042 414.947 736.822 411.678 744 412.322C759.107 413.677 769.66 424.026 780.884 433.026C785.204 436.49 798.026 442.294 795 449L795 450L835 443L835 441L832 440L832 439L844 446L843 442L843 441L854 440L851 438L851 437L855 434L851 433L851 432C854.122 429.113 850.86 426.604 848 425L850 423L826 384L821 384L824 379C820.487 379.118 819.167 378.627 819 375L798 363L794 360L792 348L783 345L786 336L784 340L780 336L783 336L782 327L780 327z"/>
<path style="fill:#335358; stroke:none;" d="M422 332L422 346L423 346L422 332M921 334L921 356L922 356L921 334M549 335L550 336L549 335M21 368L16 368C13.256 373.229 9.86757 375.556 4 375C3.65433 378.562 -2.30957 382.884 3 384C-4.62037 393.253 0 418.185 0 430C0 469.648 -4.73052 513.405 2.41667 552C3.07554 555.558 -0.532302 558.236 0.111111 561.917C0.755467 565.603 6.79142 570.64 8 565C11.3481 570.141 7.53458 571.136 6 576C15.4022 575.999 23.5033 571.315 20 584L24 584L28 593L17 595L17 597L24 603L16 598L12 599L12 600L15 600L15 608L8 608C7.34453 611.467 5.74497 615.088 10 616L9 619L13 618L16 611L8 623L13 623L13 624C8.04351 626.728 6.22953 630.921 0 630L5 637L0 636L0 645C8.66821 647.381 0.28657 652.113 4 656C3.11097 659.986 4.06112 661.805 8 663L8 664L6 665L8 668L6 668L10 677L11 677L12 672L14 672L14 684C10.6283 683.421 8.96824 683.555 8 687L13 688L13 689C7.29893 690.808 3.16841 696.622 11 699L9 701L9 702L11 707L15 706L13 700C18.3807 699.827 20.1022 703.048 21 708L16 706L15 714L19 714L17 719L20 716L24 720L86 720L83 710L88 717L106 720C104.595 714.171 97.0671 705.621 107 704L107 703L103 697L104 697L104 701L113 697L108 691L104 694L104 690L103 690L101 696L98 693L98 692L101 689L95 690L88 689L91 688L91 687L89 682L93 684L96 680L95 688L96 688L96 684C102.14 683.297 104.823 684.57 108 690L112 689L111 684L112 684L112 688L116 686L118 697L117 692L125 692C123.122 688.576 121.455 688.332 118 690L118 681L118 680C114.25 676.112 111.07 676.797 106 677L104 673L104 672L113 670L112 673C118.333 671.291 121.119 667.357 122 661L114 661L113 662L114 664L110 656L117 660L118 656L114 657L114 656L117 648L119 651C128.465 648.025 136.594 635.633 138 626L141 629L148 623C145.832 622.284 144.969 621.706 145 624L140 619L155 623L156 619L164 620L164 621L155 624L160 630L160 625L169 626L172 608C168.321 615.892 149.224 623.506 143.558 612.956C136.109 599.088 138.643 580.228 137.17 565C131.848 510.009 128.857 454.915 122.285 400C120.696 386.72 119.167 373.323 118 360C117.494 354.224 118.171 345.126 114.86 340.164C111.499 335.126 94.0098 342.131 89 343.772C74.2765 348.593 57.2699 351.139 42 353.715C37.181 354.527 25.0518 354.713 21.7731 358.603C19.9385 360.779 20.9802 365.356 21 368z"/>
<path style="fill:#4f534f; stroke:none;" d="M90 348L84 352L88 353L89 353L91 354L91 356L86 364L88 371L85 370L84 376L88 376L88 377L82 383L75 383L75 384L78 386L72 384L69 387L70 392L67 395L72 395L72 390L73 390L70 397L71 402L72 402L75 400L72 408L76 408L76 409L69 410L72 417C68.6298 416.326 62.4148 413.789 63 419L77 420L77 421L66 424L66 425L72 426L70 429L70 430L72 434L76 434L76 435L69 435L70 438L66 439L67 436L64 432L56 429L55 429L58 432L58 433L54 434L56 436L49 437L49 438L54 439L54 440L50 440L50 441L55 447L60 453C64.9299 450.656 71.0942 445.574 72 440L73 440L72 450L67 449L68 453C72.6292 451.669 76.5026 452.676 80 456L69 458L69 460C70.9737 460.477 90.4731 458.04 80 464L80 465L88 471L87 478C93.15 479.65 96.9776 481.689 99 488C95.9461 488.654 96.0642 490.007 96 493C102.186 495.246 103.396 500.008 102 506L104 508L101 510L104 513L96 512L99 520L98 523L112 526L115 525L127.365 532.38L132 552L129 551L132 568L134 568C134 512.904 127.835 456.732 121.285 402C119.613 388.02 118.519 373.978 116.845 360C116.31 355.529 116.747 347.056 113.976 343.372C110.683 338.994 94.2371 346.409 90 348M706 342L706 348L707 348L706 342M416 343L417 344L416 343z"/>
<path style="fill:#1c535f; stroke:none;" d="M644 346L644 352L645 352L644 346z"/>
<path style="fill:#335358; stroke:none;" d="M96 349L97 350L96 349z"/>
<path style="fill:#4f534f; stroke:none;" d="M661 349L661 350L667 350L661 349M656 350L656 351L660 351L656 350z"/>
<path style="fill:#87533f; stroke:none;" d="M664 350L665 351L664 350z"/>
<path style="fill:#4f534f; stroke:none;" d="M667.667 350.333L668.333 350.667L667.667 350.333M650 351L650 352L654 352L650 351M669 351L670 352L669 351M670 352L671 353L670 352z"/>
<path style="fill:#335358; stroke:none;" d="M423 353L423 368L424 368L423 353z"/>
<path style="fill:#4f534f; stroke:none;" d="M671.667 353.333L672.333 353.667L671.667 353.333M673 354L674 355L673 354M674 355L676 357L676 355L674 355z"/>
<path style="fill:#335358; stroke:none;" d="M614 357L615 358L614 357z"/>
<path style="fill:#4f534f; stroke:none;" d="M676 357L679 359L676 357z"/>
<path style="fill:#335358; stroke:none;" d="M608.667 358.333L609.333 358.667L608.667 358.333M16 359L17 360L16 359M601 359L601 360L605 360L601 359z"/>
<path style="fill:#4f534f; stroke:none;" d="M679 359L680 360L679 359z"/>
<path style="fill:#6a5348; stroke:none;" d="M799 359L800 360L799 359M801 359L802 360L801 359z"/>
<path style="fill:#335358; stroke:none;" d="M920 359L921 360L920 359M378 360L378 363L379 363L378 360M595.667 360.333L596.333 360.667L595.667 360.333z"/>
<path style="fill:#4f534f; stroke:none;" d="M680 360L683 362L680 360z"/>
<path style="fill:#335358; stroke:none;" d="M588 361L588 362L591 362L588 361M920 361L920 382L921 382L920 361M583.667 362.333L584.333 362.667L583.667 362.333z"/>
<path style="fill:#6a5348; stroke:none;" d="M591 362L591 363L595 363L591 362z"/>
<path style="fill:#4f534f; stroke:none;" d="M683 362L688 366L683 362z"/>
<path style="fill:#335358; stroke:none;" d="M577.667 363.333L578.333 363.667L577.667 363.333z"/>
<path style="fill:#4f534f; stroke:none;" d="M579 363L579 364L583 364L579 363z"/>
<path style="fill:#6a5348; stroke:none;" d="M519 374L519 375L529 376L529 375L526 375L526 374L533 375L533 374L531 374L531 373L542 376L549 376L547 374L547 373L560 378L560 376L580 378L583 373L584 373L583 378C586.322 375.632 591.902 371.328 587 368L589 366L587 364L591 364L570 365.725L519 374z"/>
<path style="fill:#4f534f; stroke:none;" d="M661 363L661 372L663 372L663 363L661 363z"/>
<path style="fill:#335358; stroke:none;" d="M571.667 364.333L572.333 364.667L571.667 364.333z"/>
<path style="fill:#4f534f; stroke:none;" d="M573 364L573 365L577 365L573 364z"/>
<path style="fill:#6a5348; stroke:none;" d="M591 364L592 365L591 364z"/>
<path style="fill:#335358; stroke:none;" d="M564 365L564 366L568 366L564 365z"/>
<path style="fill:#4f534f; stroke:none;" d="M568 365L568 366L572 366L568 365M580.667 365.333L581.333 365.667L580.667 365.333z"/>
<path style="fill:#335358; stroke:none;" d="M559.667 366.333L560.333 366.667L559.667 366.333z"/>
<path style="fill:#4f534f; stroke:none;" d="M561 366L561 367L565 367L561 366M688 366L693 370L688 366z"/>
<path style="fill:#1c535f; stroke:none;" d="M695 366L696 367L695 366z"/>
<path style="fill:#335358; stroke:none;" d="M88 367L88 368L92 369L92 368L88 367M553.667 367.333L554.333 367.667L553.667 367.333z"/>
<path style="fill:#4f534f; stroke:none;" d="M555 367L555 368L559 368L555 367z"/>
<path style="fill:#6a5348; stroke:none;" d="M591 367L592 368L591 367z"/>
<path style="fill:#335358; stroke:none;" d="M378 368L378 372L379 372L378 368z"/>
<path style="fill:#6a5348; stroke:none;" d="M417 368L418 369L417 368M419 368L420 369L419 368z"/>
<path style="fill:#335358; stroke:none;" d="M547.667 368.333L548.333 368.667L547.667 368.333z"/>
<path style="fill:#4f534f; stroke:none;" d="M549 368L549 369L553 369L549 368z"/>
<path style="fill:#1c535f; stroke:none;" d="M701 368L702 369L701 368z"/>
<path style="fill:#335358; stroke:none;" d="M541.667 369.333L542.333 369.667L541.667 369.333z"/>
<path style="fill:#4f534f; stroke:none;" d="M543 369L543 370L549 370L543 369z"/>
<path style="fill:#335358; stroke:none;" d="M527 370L528 371L527 370M535 370L535 371L538 371L535 370z"/>
<path style="fill:#4f534f; stroke:none;" d="M538 370L538 371L542 371L538 370M693 370L696 372L693 370z"/>
<path style="fill:#335358; stroke:none;" d="M529 371L529 372L532 372L529 371z"/>
<path style="fill:#4f534f; stroke:none;" d="M532 371L532 372L536 372L532 371z"/>
<path style="fill:#335358; stroke:none;" d="M523 372L523 373L526 373L523 372z"/>
<path style="fill:#4f534f; stroke:none;" d="M526 372L526 373L530 373L526 372M539 372L539 373L542 373L539 372M544 372L545 373L544 372M696 372L697 373L696 372z"/>
<path style="fill:#335358; stroke:none;" d="M701 372L702 373L701 372z"/>
<path style="fill:#4f534f; stroke:none;" d="M79 373L80 374L79 373z"/>
<path style="fill:#335358; stroke:none;" d="M516 373L516 374L520 374L516 373z"/>
<path style="fill:#4f534f; stroke:none;" d="M520 373L520 374L524 374L520 373M558 373L558 375L560 375L560 373L558 373M697 373L698 374L697 373z"/>
<path style="fill:#335358; stroke:none;" d="M510 374L510 375L515 375L510 374z"/>
<path style="fill:#4f534f; stroke:none;" d="M699 374L700 375L699 374z"/>
<path style="fill:#335358; stroke:none;" d="M93 375L94 376L93 375M423 375L424 376L423 375M504 375L504 376L508 376L504 375z"/>
<path style="fill:#6a5348; stroke:none;" d="M514 375L514 376L518 376L514 375z"/>
<path style="fill:#4f534f; stroke:none;" d="M566.667 375.333L567.333 375.667L566.667 375.333M700 375L701 376L700 375z"/>
<path style="fill:#6a5348; stroke:none;" d="M416.667 376.333L417.333 376.667L416.667 376.333z"/>
<path style="fill:#335358; stroke:none;" d="M451 380L451 381L502 377L487 376.911L451 380z"/>
<path style="fill:#6a5348; stroke:none;" d="M511 376L512 377L511 376z"/>
<path style="fill:#4f534f; stroke:none;" d="M701 376L701 377L706 380L701 376z"/>
<path style="fill:#335358; stroke:none;" d="M703 376L704 377L703 376M704 377L705 378L704 377z"/>
<path style="fill:#4f534f; stroke:none;" d="M75 378L74 381L75 378M673 380C674.573 383.564 676.148 384.559 680 385L680 384L677 383L679 379L673 380z"/>
<path style="fill:#335358; stroke:none;" d="M705 378L706 379L705 378z"/>
<path style="fill:#4f534f; stroke:none;" d="M79.3333 379.667L79.6667 380.333L79.3333 379.667z"/>
<path style="fill:#335358; stroke:none;" d="M424 379L424 382L425 382L424 379M706 379L707 380L706 379M87 380L88 381L87 380z"/>
<path style="fill:#4f534f; stroke:none;" d="M704 380L705 381L704 380z"/>
<path style="fill:#335358; stroke:none;" d="M708 380L709 381L708 380M440 381L440 382L451 382L440 381M709 381L710 382L709 381M425 382L426 383L425 382M427 382L427 383L435 383L427 382z"/>
<path style="fill:#4f534f; stroke:none;" d="M656.333 382.667L656.667 383.333L656.333 382.667z"/>
<path style="fill:#335358; stroke:none;" d="M710.667 382.333L711.333 382.667L710.667 382.333z"/>
<path style="fill:#4f534f; stroke:none;" d="M63.6667 383.333L64.3333 383.667L63.6667 383.333z"/>
<path style="fill:#6a5348; stroke:none;" d="M426 384L455 417L448 417L449 422C443.636 417.516 421.214 416.023 416 422L407 420C403.43 427.668 404.304 437.939 399.91 444.895C395.1 452.51 372.576 460.606 364 463L365 472L360 472L360 473L364 473L364 475L356 475L356 477L375.826 476.198L384 485C380.814 489.549 382.683 494.024 384 499L376 499C371.907 507.411 361.098 506.26 353 509L354 507L353 507L338 512L338 513C356.767 512.843 379.89 507.091 398 502L399 514C407.152 513.999 416.637 510.786 423.792 515.994C432.452 522.297 433.875 536.706 446 537L428 507L437 500L432 499L434 494L443 502L448 495L447 497C450.007 497 452.324 501.336 454.333 503.667C461.725 512.241 465.202 522.549 463 534C490.191 531.611 457.096 510.526 469 496C467.224 488.087 464.057 478.142 472 473L464 469L464 474L463 474L463 466L469 465L463 461L472 444L480 451L481 451C478.802 443.429 467.067 429.621 459 429C459.572 425.51 460.451 424.388 464 424L463 418L466 418L461 417L459 400L461 406L464 405L472 407L472 408L467 408L467 409L472 410L472 415C484.716 412.322 480 393.54 480 383L450 383.155L440 385L426 384z"/>
<path style="fill:#4f534f; stroke:none;" d="M696 383L697 384L696 383M704 383L705 384L704 383z"/>
<path style="fill:#335358; stroke:none;" d="M712 383L713 384L712 383z"/>
<path style="fill:#1c535f; stroke:none;" d="M0 387L3 384L0 387z"/>
<path style="fill:#4f534f; stroke:none;" d="M688.667 384.333L689.333 384.667L688.667 384.333z"/>
<path style="fill:#6a5348; stroke:none;" d="M484 385L486 387L484 385z"/>
<path style="fill:#4f534f; stroke:none;" d="M696 387L704 392L709 387L696 387z"/>
<path style="fill:#6a5348; stroke:none;" d="M487 387L488 388L487 387z"/>
<path style="fill:#4f534f; stroke:none;" d="M686 387L686 390L694 390L694 388L686 387z"/>
<path style="fill:#6a5348; stroke:none;" d="M721 389L722 390L721 389M489 390L493 393L489 390z"/>
<path style="fill:#335358; stroke:none;" d="M720 390L721 391L720 390z"/>
<path style="fill:#4f534f; stroke:none;" d="M664 391L664 393L666 393L666 391L664 391M713 391L713 392L717 392L713 391z"/>
<path style="fill:#335358; stroke:none;" d="M717.667 391.333L718.333 391.667L717.667 391.333z"/>
<path style="fill:#1c535f; stroke:none;" d="M536 720L891 720C890.884 677.988 881.518 636.73 877.464 595C876.711 587.253 875.371 578.623 875.126 570.985C874.917 564.507 876.501 555.262 872 550L872 549L874 548L874 547L869.319 523L865 509C855.606 499.433 851.249 480.807 848.424 468C847.037 461.708 847.458 452.45 842.606 447.684C835.249 440.459 818.023 447.246 809 448.753C778.804 453.795 748.36 460.143 718 464C723.953 452.605 721 435.559 721 423L722 423L726 439L725 439L723 437L727 440L728 446L728 457L734 459C738.123 458.223 742.463 458.371 744 454L745 454L750 457L750 456L747 455L762 454L762 453L760 451L766 450L766 452L773 451L778 451L778 450L776 450L776 449L784 449L784 448L777 440C768.07 437.723 761.007 426.971 753.714 421.688C745.961 416.072 729.124 416.659 721 421L721 391L577 416.75L540 423.197L527.028 426.6L526.996 447L529.945 506L532.039 596L536 720z"/>
<path style="fill:#335358; stroke:none;" d="M919 391L919 411L920 411L919 391z"/>
<path style="fill:#4f534f; stroke:none;" d="M61 392L62 393L61 392M464.333 392.667L464.667 393.333L464.333 392.667M661 392L661 394L663 394L663 392L661 392M672 392L673 393L672 392M699 392L700 393L699 392M697 394L697 395L712 393L697 394z"/>
<path style="fill:#335358; stroke:none;" d="M712.667 392.333L713.333 392.667L712.667 392.333M707.667 393.333L708.333 393.667L707.667 393.333z"/>
<path style="fill:#4f534f; stroke:none;" d="M672 394L673 395L672 394z"/>
<path style="fill:#335358; stroke:none;" d="M702.667 394.333L703.333 394.667L702.667 394.333z"/>
<path style="fill:#4f534f; stroke:none;" d="M451 395L451 397L453 397L453 395L451 395z"/>
<path style="fill:#6a5348; stroke:none;" d="M494 395C496.024 399.928 501.881 406.325 507 408L494 395z"/>
<path style="fill:#4f534f; stroke:none;" d="M666.667 395.333L667.333 395.667L666.667 395.333M691 395L691 396L696 396L691 395z"/>
<path style="fill:#335358; stroke:none;" d="M696.667 395.333L697.333 395.667L696.667 395.333z"/>
<path style="fill:#4f534f; stroke:none;" d="M723 395L723 403L724 403L723 395M656 396L656 399L657 399L656 396M686 396L686 397L690 397L686 396z"/>
<path style="fill:#335358; stroke:none;" d="M690.667 396.333L691.333 396.667L690.667 396.333z"/>
<path style="fill:#4f534f; stroke:none;" d="M64.3333 397.667L64.6667 398.333L64.3333 397.667M680 397L680 398L684 398L680 397z"/>
<path style="fill:#335358; stroke:none;" d="M684.667 397.333L685.333 397.667L684.667 397.333z"/>
<path style="fill:#4f534f; stroke:none;" d="M60 398L61 399L60 398M668 399L668 400L673 400L668 399M674 398L674 399L679 399L674 398z"/>
<path style="fill:#335358; stroke:none;" d="M679 398L680 399L679 398z"/>
<path style="fill:#4f534f; stroke:none;" d="M779 398L791.576 409.997L825 434C815.597 418.315 793.026 411.735 781 398L779 398z"/>
<path style="fill:#335358; stroke:none;" d="M673.667 399.333L674.333 399.667L673.667 399.333z"/>
<path style="fill:#4f534f; stroke:none;" d="M63 400L64 402L65 402L66 400L63 400z"/>
<path style="fill:#335358; stroke:none;" d="M76 400L77 401L76 400z"/>
<path style="fill:#4f534f; stroke:none;" d="M452.667 400.333L453.333 400.667L452.667 400.333z"/>
<path style="fill:#6a5348; stroke:none;" d="M632 400L633 401L632 400z"/>
<path style="fill:#4f534f; stroke:none;" d="M655 400L656 401L655 400M662 400L662 401L667 401L662 400z"/>
<path style="fill:#335358; stroke:none;" d="M667.667 400.333L668.333 400.667L667.667 400.333z"/>
<path style="fill:#6a5348; stroke:none;" d="M629.667 401.333L630.333 401.667L629.667 401.333z"/>
<path style="fill:#335358; stroke:none;" d="M661 401L661 402L664 402L661 401z"/>
<path style="fill:#4f534f; stroke:none;" d="M455 402L455 405L456 405L455 402z"/>
<path style="fill:#6a5348; stroke:none;" d="M632 402L632 403L637 403L632 402M648.667 402.333L649.333 402.667L648.667 402.333z"/>
<path style="fill:#335358; stroke:none;" d="M656.667 402.333L657.333 402.667L656.667 402.333z"/>
<path style="fill:#6a5348; stroke:none;" d="M640 403L640 404L645 404L640 403z"/>
<path style="fill:#335358; stroke:none;" d="M650 403L650 404L653 404L650 403M76 404L79 407L78 404L76 404z"/>
<path style="fill:#6a5348; stroke:none;" d="M629 406L633 406L629 406z"/>
<path style="fill:#335358; stroke:none;" d="M644 404L644 405L647 405L644 404M720 404L720 414L721 414L720 404z"/>
<path style="fill:#6a5348; stroke:none;" d="M626 405L627 406L626 405z"/>
<path style="fill:#335358; stroke:none;" d="M638 405L638 406L642 406L638 405M633 406L633 407L636 407L633 406z"/>
<path style="fill:#4f534f; stroke:none;" d="M57 410L60 407L57 410z"/>
<path style="fill:#335358; stroke:none;" d="M627 407L627 408L630 408L627 407z"/>
<path style="fill:#4f534f; stroke:none;" d="M64 408L65 409L64 408z"/>
<path style="fill:#335358; stroke:none;" d="M621 408L621 409L624 409L621 408M616 409L616 410L619 410L616 409M610 410L610 411L613 411L610 410M604 411L604 412L607 412L604 411z"/>
<path style="fill:#6a5348; stroke:none;" d="M510 412L512 414L512 412L510 412z"/>
<path style="fill:#335358; stroke:none;" d="M598 412L598 413L602 413L598 412z"/>
<path style="fill:#4f534f; stroke:none;" d="M721 416C725.13 420.653 739.746 415.703 746 417.17C758.167 420.023 766.737 430.416 776.17 438.011C780.902 441.821 786.47 445.308 789 451L797 451L797 450L795 449C798.212 448.358 796.901 444.172 795 442C792.453 439.089 786.283 436.97 783 435C776.794 431.276 771.723 421.861 764 418C756.866 414.433 742.881 410.03 735 412C730.223 413.194 722.095 416.274 721 416M58 413L59 415L60 415L61 413L58 413z"/>
<path style="fill:#335358; stroke:none;" d="M592 413L592 414L596 414L592 413z"/>
<path style="fill:#4f534f; stroke:none;" d="M803 413L806 416L803 413z"/>
<path style="fill:#335358; stroke:none;" d="M586 414L586 415L590 415L586 414z"/>
<path style="fill:#4f534f; stroke:none;" d="M721 414L722 415L721 414z"/>
<path style="fill:#6a5348; stroke:none;" d="M440 415L441 416L440 415z"/>
<path style="fill:#335358; stroke:none;" d="M581 415L581 416L584 416L581 415M720 415L721 416L720 415M74.6667 416.333L75.3333 416.667L74.6667 416.333z"/>
<path style="fill:#6a5348; stroke:none;" d="M478.667 416.333L479.333 416.667L478.667 416.333z"/>
<path style="fill:#335358; stroke:none;" d="M574 416L574 417L579 417L574 416M721 421C729.522 417.388 744.897 416.087 752.83 421.688C760.227 426.911 767.742 438.607 777 440L784 448L784 449L776 449L776 450L778 450L778 451L773 451L766 452L766 450L760 451L762 453L762 454L747 455L750 456L750 457L745 454L744 454L734 459L728 457L728 446L727 440L723 437L725 439L726 439L722 423L721 423L720 460L721 460L721 458L722 458L718 464L792 452C778.279 438.99 758.963 413.915 738 416.778C733.249 417.427 722.287 414.996 721 421z"/>
<path style="fill:#4f534f; stroke:none;" d="M807 416L808 417L807 416z"/>
<path style="fill:#335358; stroke:none;" d="M570 417L570 418L573 418L570 417z"/>
<path style="fill:#4f534f; stroke:none;" d="M456 418L457 419L456 418z"/>
<path style="fill:#6a5348; stroke:none;" d="M469 418L472 420L469 418z"/>
<path style="fill:#335358; stroke:none;" d="M564 418L564 419L568 419L564 418M557 419L557 420L562 420L557 419M918 419L918 437L919 437L918 419z"/>
<path style="fill:#4f534f; stroke:none;" d="M64 420L62 424L67 420L64 420z"/>
<path style="fill:#335358; stroke:none;" d="M552 420L552 421L556 421L552 420M547 421L547 422L550 422L547 421M540 422L540 423L544 423L540 422M75 423L76 424L75 423M536 423L536 424L539 424L536 423z"/>
<path style="fill:#4f534f; stroke:none;" d="M51 424L52 425L51 424z"/>
<path style="fill:#335358; stroke:none;" d="M72 424L72 426L74 424L72 424z"/>
<path style="fill:#6a5348; stroke:none;" d="M521.667 424.333L522.333 424.667L521.667 424.333z"/>
<path style="fill:#335358; stroke:none;" d="M527 424L527 425L533 425L527 424M525 425L525 436L526 436L527 425L525 425z"/>
<path style="fill:#4f534f; stroke:none;" d="M63 427L64 428L63 427z"/>
<path style="fill:#335358; stroke:none;" d="M72 427C72.9749 430.33 74.7517 430.63 78 430L78 429L72 427M82.6667 429.333L83.3333 429.667L82.6667 429.333z"/>
<path style="fill:#4f534f; stroke:none;" d="M66 432L66 433L70 433L66 432M460 432L460 435L461 435L460 432M49 433L49 435L52 435L52 433L49 433z"/>
<path style="fill:#335358; stroke:none;" d="M320 434L321 435L320 434z"/>
<path style="fill:#4f534f; stroke:none;" d="M463 435L463 438L464 438L463 435z"/>
<path style="fill:#335358; stroke:none;" d="M56 436L56 439L63 438L56 436z"/>
<path style="fill:#4f534f; stroke:none;" d="M829 436L831 438L829 436z"/>
<path style="fill:#6a5348; stroke:none;" d="M916 436C916 443.864 916.182 455.222 909 460L911 463L911 464L908 472C903.72 474.279 901.924 481.281 897 477L888 479L891 482L891 484L888 485L888 481C879.184 484.193 873.758 475.609 866.036 472.905C863.651 472.07 859.272 467.586 856.883 470.623C855.133 472.846 857.55 476.037 858.845 477.829C863.339 484.052 868.94 487.862 870 496L874 496L885.744 564L888 591L888 592L893.346 619.089L898.694 655.985L903 684L910 711L911 670L910 670L908 672L908 666L907 666L907 670L906 670C905.766 665.935 907.66 657.999 903 657L903 656L904 645L902 645L899.254 607L896 549L899 550L900 547L902 547L900 557L912 563L912 554L913 554L913 576L914 576C914 542.294 916 508.686 916 475C916 463.823 920.304 446.257 916 436z"/>
<path style="fill:#335358; stroke:none;" d="M75 439L75 440L80 440L75 439z"/>
<path style="fill:#4f534f; stroke:none;" d="M40 439L41 440L40 439M469.667 439.333L470.333 439.667L469.667 439.333z"/>
<path style="fill:#335358; stroke:none;" d="M55 440L55 442L57 440L55 440M58 440L58 441L62 442L58 440z"/>
<path style="fill:#1c535f; stroke:none;" d="M288 440L289 441L288 440M292.667 440.333L293.333 440.667L292.667 440.333z"/>
<path style="fill:#335358; stroke:none;" d="M526 440L526 464L527 464L526 440z"/>
<path style="fill:#4f534f; stroke:none;" d="M847 440L848 441L847 440z"/>
<path style="fill:#6a5348; stroke:none;" d="M914 442L914 447L915 447L914 442M845 443L847 445L845 443z"/>
<path style="fill:#4f534f; stroke:none;" d="M828 444L828 445L832 445L828 444z"/>
<path style="fill:#335358; stroke:none;" d="M832.667 444.333L833.333 444.667L832.667 444.333M838 444L839 445L838 444z"/>
<path style="fill:#4f534f; stroke:none;" d="M824.667 445.333L825.333 445.667L824.667 445.333z"/>
<path style="fill:#335358; stroke:none;" d="M826.667 445.333L827.333 445.667L826.667 445.333M61 446L61 448L64 448L64 446L61 446z"/>
<path style="fill:#4f534f; stroke:none;" d="M819.667 446.333L820.333 446.667L819.667 446.333z"/>
<path style="fill:#335358; stroke:none;" d="M821.667 446.333L822.333 446.667L821.667 446.333M841 446L842 447L841 446z"/>
<path style="fill:#6a5348; stroke:none;" d="M844 446L845 447L844 446M472 447L473 448L472 447z"/>
<path style="fill:#4f534f; stroke:none;" d="M813 447L813 448L816 448L813 447z"/>
<path style="fill:#335358; stroke:none;" d="M816 447L817 448L816 447M842 447L843 448L842 447M768 448L769 449L768 448z"/>
<path style="fill:#4f534f; stroke:none;" d="M807 448L807 449L810 449L807 448z"/>
<path style="fill:#335358; stroke:none;" d="M810 448L811 449L810 448z"/>
<path style="fill:#6a5348; stroke:none;" d="M846 448L847 449L846 448z"/>
<path style="fill:#4f534f; stroke:none;" d="M798 449L798 450L804 450L798 449z"/>
<path style="fill:#335358; stroke:none;" d="M804 449L805 450L804 449M844 449L845 450L844 449M797 450L797 451L800 451L797 450M845.333 450.667L845.667 451.333L845.333 450.667z"/>
<path style="fill:#6a5348; stroke:none;" d="M847 451L848 452L847 451z"/>
<path style="fill:#335358; stroke:none;" d="M917 451L917 468L918 468L917 451z"/>
<path style="fill:#4f534f; stroke:none;" d="M64.3333 452.667L64.6667 453.333L64.3333 452.667z"/>
<path style="fill:#6a5348; stroke:none;" d="M524 452L524 456L525 456L524 452z"/>
<path style="fill:#4f534f; stroke:none;" d="M916 453L916 484L917 484L916 453M67 455L67 456L72 456L67 455z"/>
<path style="fill:#335358; stroke:none;" d="M846 454L846 458L847 458L846 454M835 455L836 456L835 455z"/>
<path style="fill:#4f534f; stroke:none;" d="M62 456L63 459L64 459L64 456L62 456M721 458L720 461L721 458z"/>
<path style="fill:#6a5348; stroke:none;" d="M221 459L223 462L221 459z"/>
<path style="fill:#1c535f; stroke:none;" d="M729.667 459.333L730.333 459.667L729.667 459.333z"/>
<path style="fill:#335358; stroke:none;" d="M847 460L847 464L848 464L847 460z"/>
<path style="fill:#6a5348; stroke:none;" d="M470.667 463.333L471.333 463.667L470.667 463.333z"/>
<path style="fill:#335358; stroke:none;" d="M848 465C848.945 476.57 854.948 502.223 865 509L868.779 522L874 547L874 548L872 549L872 550L875.064 571.975L878.661 607L891 720L901 720L894.863 659L883.949 594.184L876.505 531L853.984 482L848 465z"/>
<path style="fill:#4f534f; stroke:none;" d="M77 467L77 469L80 469L80 467L77 467z"/>
<path style="fill:#6a5348; stroke:none;" d="M496 470L494 471L494 472L496 470M525 471L526 472L525 471z"/>
<path style="fill:#4f534f; stroke:none;" d="M82 472L82 474L84 472L82 472z"/>
<path style="fill:#6a5348; stroke:none;" d="M525 477L525 489L526 489L525 477M877 480L880 478L877 480M378 481C378.064 483.993 377.946 485.346 381 486L378 481z"/>
<path style="fill:#335358; stroke:none;" d="M527 481L527 497L528 497L527 481M228 482L228 484L230 484L230 482L228 482M916 484L916 500L917 500L916 484M231 486L231 492L233 490L236 496L231 494L231 504C238.76 504.001 242.215 503.822 240 512L235 512L240 515C241.105 512.931 243.881 510.985 244.273 508.66C245.372 502.149 235.594 489.94 231 486z"/>
<path style="fill:#87533f; stroke:none;" d="M431 494L430 496L432 496L431 494M434 494L432 499L437 500L428 507L445 536L464 533C462.573 521.614 461.747 500.101 447 497L448 495L447 495L443 502L434 494z"/>
<path style="fill:#4f534f; stroke:none;" d="M386 495L387 496L386 495M915 495L916 496L915 495M96.6667 496.333L97.3333 496.667L96.6667 496.333z"/>
<path style="fill:#335358; stroke:none;" d="M104 496L104 497L107 497L104 496z"/>
<path style="fill:#6a5348; stroke:none;" d="M263.333 496.667L263.667 497.333L263.333 496.667z"/>
<path style="fill:#4f534f; stroke:none;" d="M463 496L464 497L463 496z"/>
<path style="fill:#6a5348; stroke:none;" d="M264 498L279 526L282 523L279 519L281 520L281 519L280 516L277 517L277 516L277 515L279 515L267 498L264 498z"/>
<path style="fill:#4f534f; stroke:none;" d="M393 498L394 499L393 498z"/>
<path style="fill:#335358; stroke:none;" d="M527.333 498.667L527.667 499.333L527.333 498.667z"/>
<path style="fill:#4f534f; stroke:none;" d="M915 499L915 520L916 520L915 499z"/>
<path style="fill:#335358; stroke:none;" d="M528 500L529 501L528 500z"/>
<path style="fill:#6a5348; stroke:none;" d="M526 501L528 503L528 501L526 501z"/>
<path style="fill:#335358; stroke:none;" d="M529 501L529 519L530 519L529 501z"/>
<path style="fill:#4f534f; stroke:none;" d="M387 504L387 505L398 504L398 509L399 509L398 502L387 504z"/>
<path style="fill:#87533f; stroke:none;" d="M456 503L457 504L456 503z"/>
<path style="fill:#4f534f; stroke:none;" d="M97 504L99 506L99 504L97 504z"/>
<path style="fill:#335358; stroke:none;" d="M105 504L106 506L107 506L108 504L105 504M111 504L112 505L111 504z"/>
<path style="fill:#6a5348; stroke:none;" d="M360 504L361 505L360 504M368.667 504.333L369.333 504.667L368.667 504.333z"/>
<path style="fill:#335358; stroke:none;" d="M392 504L393 505L392 504z"/>
<path style="fill:#1c535f; stroke:none;" d="M280 526L286.09 609L293 720L483 720L463 534C456.125 535.779 442.676 540.377 436.015 536.972C428.433 533.097 426.202 522.895 419.621 518.009C414.424 514.151 404.895 515.906 399 517L398 504L345 513.6L280 526z"/>
<path style="fill:#6a5348; stroke:none;" d="M355.667 505.333L356.333 505.667L355.667 505.333z"/>
<path style="fill:#4f534f; stroke:none;" d="M382 505L382 506L386 506L382 505z"/>
<path style="fill:#335358; stroke:none;" d="M386 505L386 506L389 506L386 505z"/>
<path style="fill:#4f534f; stroke:none;" d="M365 508L365 509L380 507L365 508z"/>
<path style="fill:#335358; stroke:none;" d="M380 506L380 507L384 507L380 506z"/>
<path style="fill:#6a5348; stroke:none;" d="M250 507L263 535L264 535L262 510L261 510L261 517L260 517L260 512L259 512L258 515L255 516L250 507z"/>
<path style="fill:#4f534f; stroke:none;" d="M361 507L361 508L364 508L361 507z"/>
<path style="fill:#335358; stroke:none;" d="M376.667 507.333L377.333 507.667L376.667 507.333z"/>
<path style="fill:#4f534f; stroke:none;" d="M97 508L97 511L99 511L99 508L97 508z"/>
<path style="fill:#335358; stroke:none;" d="M370 508L370 509L373 509L370 508M105 509L107 511L107 509L105 509z"/>
<path style="fill:#6a5348; stroke:none;" d="M254 509L255 510L254 509z"/>
<path style="fill:#4f534f; stroke:none;" d="M345 512L345 513L364 510L345 512z"/>
<path style="fill:#335358; stroke:none;" d="M364 509L364 510L368 510L364 509M398 509L398 514L399 514L398 509M360.667 510.333L361.333 510.667L360.667 510.333M354.667 511.333L355.333 511.667L354.667 511.333M230 512L230 514L232 514L232 512L230 512z"/>
<path style="fill:#6a5348; stroke:none;" d="M304 512L305 513L304 512M326 513L326 514L333 513L326 513z"/>
<path style="fill:#335358; stroke:none;" d="M349.667 512.333L350.333 512.667L349.667 512.333z"/>
<path style="fill:#4f534f; stroke:none;" d="M399 514L399 515C405.656 515 415.366 513.162 420.96 517.434C429.15 523.687 431.444 537.366 443 538L422.896 514.906L399 514z"/>
<path style="fill:#6a5348; stroke:none;" d="M308.667 513.333L309.333 513.667L308.667 513.333M328 514L328 515L338 514L328 514z"/>
<path style="fill:#335358; stroke:none;" d="M344.667 513.333L345.333 513.667L344.667 513.333M338 514L338 515L341 515L338 514z"/>
<path style="fill:#6a5348; stroke:none;" d="M322 515L322 516L328 516L322 515z"/>
<path style="fill:#335358; stroke:none;" d="M333.667 515.333L334.333 515.667L333.667 515.333M399 517C405.055 516.235 413.355 514.231 418.79 518.009C426.449 523.333 428.28 535.249 438 538C428.931 526.902 424.745 515 409 515C405.484 515 401.435 514.214 399 517z"/>
<path style="fill:#6a5348; stroke:none;" d="M311 517L311 518L322 517L311 517z"/>
<path style="fill:#335358; stroke:none;" d="M328.667 516.333L329.333 516.667L328.667 516.333M322.667 517.333L323.333 517.667L322.667 517.333M678 517L678 519L680 519L680 517L678 517z"/>
<path style="fill:#6a5348; stroke:none;" d="M307 518L307 519L310 519L307 518z"/>
<path style="fill:#335358; stroke:none;" d="M316 518L316 519L320 519L316 518z"/>
<path style="fill:#6a5348; stroke:none;" d="M304 519L305 520L304 519z"/>
<path style="fill:#335358; stroke:none;" d="M311 519L311 520L314 520L311 519z"/>
<path style="fill:#4f534f; stroke:none;" d="M260 520L261 521L260 520z"/>
<path style="fill:#6a5348; stroke:none;" d="M295 520L296 521L295 520M300 520L301 521L300 520z"/>
<path style="fill:#335358; stroke:none;" d="M306.667 520.333L307.333 520.667L306.667 520.333M915 520L915 531L916 531L915 520z"/>
<path style="fill:#6a5348; stroke:none;" d="M282 521L283 522L282 521M286.333 521.667L286.667 522.333L286.333 521.667M290 521L290 522L294 522L290 521z"/>
<path style="fill:#335358; stroke:none;" d="M301 521L301 522L304 522L301 521z"/>
<path style="fill:#4f534f; stroke:none;" d="M872 521L873 522L872 521z"/>
<path style="fill:#335358; stroke:none;" d="M296.667 522.333L297.333 522.667L296.667 522.333z"/>
<path style="fill:#6a5348; stroke:none;" d="M283 523L284 524L283 523z"/>
<path style="fill:#335358; stroke:none;" d="M290 523L290 524L293 524L290 523M285 524L285 525L288 525L285 524M280.667 525.333L281.333 525.667L280.667 525.333M400 527L400 543L405 542L403 527L400 527M280 528L280 536L281 536L280 528M530 529L530 546L531 546L530 529M915 532L916 533L915 532z"/>
<path style="fill:#6a5348; stroke:none;" d="M458 533L458 534L462 534L458 533z"/>
<path style="fill:#4f534f; stroke:none;" d="M462 533L463 534L462 533z"/>
<path style="fill:#6a5348; stroke:none;" d="M453 534L453 535L457 535L453 534z"/>
<path style="fill:#4f534f; stroke:none;" d="M457 534L457 535L460 535L457 534z"/>
<path style="fill:#335358; stroke:none;" d="M460.667 534.333L461.333 534.667L460.667 534.333M463 534L463 538L464 538L463 534z"/>
<path style="fill:#1c535f; stroke:none;" d="M24 535L25 536L24 535z"/>
<path style="fill:#6a5348; stroke:none;" d="M448 535L448 536L452 536L448 535z"/>
<path style="fill:#4f534f; stroke:none;" d="M452 535L452 536L455 536L452 535z"/>
<path style="fill:#335358; stroke:none;" d="M455.667 535.333L456.333 535.667L455.667 535.333z"/>
<path style="fill:#4f534f; stroke:none;" d="M914 535L915 536L914 535M446 536L446 537L449 537L446 536z"/>
<path style="fill:#335358; stroke:none;" d="M449.667 536.333L450.333 536.667L449.667 536.333M443.667 537.333L444.333 537.667L443.667 537.333z"/>
<path style="fill:#6a5348; stroke:none;" d="M466 539L466 546L467 546L466 539z"/>
<path style="fill:#4f534f; stroke:none;" d="M914 539L914 556L915 556L914 539z"/>
<path style="fill:#87533f; stroke:none;" d="M895 543L896 547L900 545L900 544L895 543z"/>
<path style="fill:#1c535f; stroke:none;" d="M8 544L9 545L8 544z"/>
<path style="fill:#335358; stroke:none;" d="M281 544L281 552L282 552L281 544M464 544L464 548L465 548L464 544z"/>
<path style="fill:#87533f; stroke:none;" d="M900 547L899 550L896 549L899.36 611L902 645L904 645L903 656L903 657L906 670L907 670L907 666L908 666L908 672C914.266 667.573 910.459 652.007 911.286 645C914.783 615.357 913 583.873 913 554L912 554L912 563L900 557L902 547L900 547z"/>
<path style="fill:#1c535f; stroke:none;" d="M0 548L0 558L1 558C2.88226 554.014 3.09349 551.316 0 548M7 551L8 552L7 551z"/>
<path style="fill:#87533f; stroke:none;" d="M904.667 551.333L905.333 551.667L904.667 551.333z"/>
<path style="fill:#335358; stroke:none;" d="M465 552L465 555L466 555L465 552M466 556L466 560L467 560L466 556M914 556L914 567L915 567L914 556z"/>
<path style="fill:#6a5348; stroke:none;" d="M529 557L529 560L530 560L529 557z"/>
<path style="fill:#335358; stroke:none;" d="M873.333 558.667L873.667 559.333L873.333 558.667M282 560L282 567L283 567L282 560M467 560L473.91 617L483 720L487 720C481.89 684.194 480.11 647.119 476.144 610.985C474.347 594.607 474.969 574.88 467 560z"/>
<path style="fill:#6a5348; stroke:none;" d="M475 563L475 567L476 567L475 563z"/>
<path style="fill:#1c535f; stroke:none;" d="M0 564L0 613C0 616.758 -1.83341 627.461 1.60262 629.932C5.55514 632.774 10.3938 626.09 13 624L13 623L8 623C12.4984 618.326 15.9121 618.438 16 611C12.4626 612.802 11.5597 614.257 13 618L9 619L10 616C6.8827 613.92 7.59766 611.493 8 608L15 608C15 604.49 15.9871 600.854 12 600L12 599L16 598L24 603L17 597L17 595L28 593L24 584L20 584C25.3696 570.728 14.971 575.993 6 576C8.27761 571.6 12.5332 569.491 8 565C5.63408 568.422 3.08819 565.444 0 564z"/>
<path style="fill:#335358; stroke:none;" d="M531 564L531 576L532 576L531 564M283 567L284 568L283 567z"/>
<path style="fill:#6a5348; stroke:none;" d="M488 570L486 576C488.946 574.366 489.949 572.939 488 570M511 570L511 573L512 573L511 570z"/>
<path style="fill:#4f534f; stroke:none;" d="M228 572L230 574L228 572z"/>
<path style="fill:#6a5348; stroke:none;" d="M476 572L479 583C474.397 590.723 481.586 611.936 482.714 621C486.782 653.695 495 687.024 495 720L534 720C537.881 689.29 533.392 655.882 532.039 625C531.421 610.888 534 593.532 530 580L529 580L530 626L529 626L528 624C526.473 626.761 526.286 627.224 529 629L522 630L524 626L520 625L520 624L523 624L523 616L519 617L522 608L518 608L516 601C518.771 596.226 516.011 591.056 513 587L505 586L505 585L512 585L512 584L509 584L509 579L504 580L504 576L503 576L500 581L499 574L498 574L497 584L496 584L490 581L490 580L496 581L496 576L488 577L488 584L493 584L496 595C488.328 588.477 486.009 572.917 476 572M504 572L505 573L504 572z"/>
<path style="fill:#4f534f; stroke:none;" d="M134 574L134 577L135 577L134 574M232.333 575.667L232.667 576.333L232.333 575.667M479 575L478 578L479 575z"/>
<path style="fill:#6a5348; stroke:none;" d="M282 576L282 580C274.281 581.98 266.906 585.613 259 587.56C255.828 588.341 251.954 588.508 250.643 592.109C247.622 600.408 256.644 611.542 259 619L263 622L270 621L271 626L272 626L272 622L273 622L272 634L268 632L269 656L269 657L270 659L271 659L272 655L276 656L276 657L272 657L272 665L274 668L271 667L273 671L272 674L282 676L270 684C267.845 693.848 257.823 695.054 249 696.156C231.18 698.381 212.688 696.989 195 700L195 704C198.578 706.143 200.369 707.705 200 712C205.372 712.103 204.244 715.946 203 720L262 720L256 708L248 703L248 701L255 699L255 703L257 703L257 699C268.085 696.887 272.5 691.918 284 696L283 700L290 702L282 704L283 708L287 706L288 720L292 720C292 688.997 287.395 657.958 286.039 627C285.393 612.231 288.448 589.418 282 576M512.667 576.333L513.333 576.667L512.667 576.333z"/>
<path style="fill:#4f534f; stroke:none;" d="M913.333 576.667L913.667 577.333L913.333 576.667z"/>
<path style="fill:#6a5348; stroke:none;" d="M913 578L913 582L914 582L913 578z"/>
<path style="fill:#4f534f; stroke:none;" d="M230 579L230 581L232 581L232 579L230 579z"/>
<path style="fill:#335358; stroke:none;" d="M284 580L284 587L285 587L284 580z"/>
<path style="fill:#4f534f; stroke:none;" d="M913 582L913 594L914 594L913 582z"/>
<path style="fill:#1c535f; stroke:none;" d="M48 584L45 589L50 589L50 584L48 584z"/>
<path style="fill:#4f534f; stroke:none;" d="M501 584L502 585L501 584M496 586L496 590L502 590L502 589L496 586M284 587L284 596L285 596L284 587z"/>
<path style="fill:#6a5348; stroke:none;" d="M221 598L216.441 615.402L207 626L197 629L197 630C213.601 629.656 239.09 627.299 254 620C251.288 613.487 244.107 595.399 236.907 593.448C231.499 591.983 225.576 595.613 221 598z"/>
<path style="fill:#335358; stroke:none;" d="M218 594L218 595L223 595L218 594M913 594L913 607L914 607L913 594M208 596L208 597L218 596L208 596z"/>
<path style="fill:#1c535f; stroke:none;" d="M24 599L29 597C26.1009 595.98 24.6916 595.772 24 599z"/>
<path style="fill:#335358; stroke:none;" d="M203 597L203 598L208 598L203 597M285 597L285 602L286 602L285 597z"/>
<path style="fill:#6a5348; stroke:none;" d="M912 597L912 622L913 622L912 597z"/>
<path style="fill:#335358; stroke:none;" d="M178 602L178 603L203 599L178 602M245 598C245.736 605.142 255.206 613.15 254.006 619.852C253.223 624.224 241.555 624.526 238 625.196C226.065 627.445 213.994 629.401 202 631.414C197.939 632.095 190.793 632.058 187.603 634.938C184.043 638.154 186.782 645.931 186.961 650C187.576 664.059 186.48 680.175 189.228 693.941C190.604 700.831 202.135 697.635 207 697.17C221.923 695.744 237.286 695.459 252 692.339C255.96 691.499 263.346 691.508 266.247 688.415C269.501 684.944 266.796 677.113 266.285 673C264.652 659.868 262.009 646.227 262 633L261 633L264.424 670L264.971 685.682L247 689.615L191 697L188.004 652L188.618 636.564L200 633.197L230 628L231 632L238 631L238 632L232 637L234 648L232 646L231 646C232.27 652.546 231.339 668.452 240 667L243 672L248 669L248 676L256 677L256 621L260 632L261 632C260.78 621.678 252.642 604.999 245 598z"/>
<path style="fill:#1c535f; stroke:none;" d="M25 600L27 603L27 600L25 600z"/>
<path style="fill:#335358; stroke:none;" d="M532 600L532 610L533 610L532 600z"/>
<path style="fill:#1c535f; stroke:none;" d="M16 601L16 605L20 604L16 601z"/>
<path style="fill:#4f534f; stroke:none;" d="M285 602L285 612L286 612L285 602z"/>
<path style="fill:#335358; stroke:none;" d="M174 603L174 604L178 604L174 603z"/>
<path style="fill:#1c535f; stroke:none;" d="M23 604L24 605L23 604z"/>
<path style="fill:#335358; stroke:none;" d="M172.667 604.333L173.333 604.667L172.667 604.333M171 605L172 606L171 605z"/>
<path style="fill:#1c535f; stroke:none;" d="M16 606L16 608L18 608L16 606z"/>
<path style="fill:#335358; stroke:none;" d="M170.333 606.667L170.667 607.333L170.333 606.667z"/>
<path style="fill:#1c535f; stroke:none;" d="M24 608L25 609L24 608M880.333 608.667L880.667 609.333L880.333 608.667z"/>
<path style="fill:#335358; stroke:none;" d="M2 610L1 614L2 614L2 610z"/>
<path style="fill:#87533f; stroke:none;" d="M244 610L242 617L246 620L243 620L243 622L252 620L244 610z"/>
<path style="fill:#4f534f; stroke:none;" d="M532 610L532 630L533 630L532 610z"/>
<path style="fill:#335358; stroke:none;" d="M286 612L286 616L287 616L286 612z"/>
<path style="fill:#4f534f; stroke:none;" d="M286 616L287 617L286 616z"/>
<path style="fill:#335358; stroke:none;" d="M286.333 617.667L286.667 618.333L286.333 617.667z"/>
<path style="fill:#4f534f; stroke:none;" d="M286 619L286 632L287 632L286 619M118 622L116 633L120 637L121 637L120 624L123 625L123 621L118 622z"/>
<path style="fill:#1c535f; stroke:none;" d="M256 621L256 677L248 676L248 669L243 672L240 667C231.63 667.27 232.703 652.566 231 646L232 646L234 648L232 637L238 632L238 631L231 632L230 628L200 632.999L188.604 635.938L188 651L191 697C209.428 697 227.933 693.468 246 690C250.856 689.068 260.481 690.104 264.397 686.973C267.975 684.111 265.215 674.822 264.718 671C263.347 660.443 261.867 649.614 261.089 639C260.624 632.668 260.949 625.573 256 621z"/>
<path style="fill:#4f534f; stroke:none;" d="M912 622L912 634L913 634L912 622M104.667 623.333L105.333 623.667L104.667 623.333M136 623L137 624L136 623z"/>
<path style="fill:#6a5348; stroke:none;" d="M203 624L204 625L203 624z"/>
<path style="fill:#4f534f; stroke:none;" d="M104 625L104 627L112 627L112 625L104 625z"/>
<path style="fill:#6a5348; stroke:none;" d="M271 627L271 632L272 632L271 627z"/>
<path style="fill:#335358; stroke:none;" d="M287 628L287 635L288 635L287 628z"/>
<path style="fill:#1c535f; stroke:none;" d="M6 632L6 633L8 637L9 637L10 633L14 633L11 632L12 629L6 632z"/>
<path style="fill:#4f534f; stroke:none;" d="M124 629L124 632L126 629L124 629z"/>
<path style="fill:#335358; stroke:none;" d="M9 632L10 633L9 632z"/>
<path style="fill:#4f534f; stroke:none;" d="M111 632L111 635L112 635L111 632z"/>
<path style="fill:#335358; stroke:none;" d="M136 632L136 636L137 636L138 632L136 632M149 632L150 637L156 632L149 632z"/>
<path style="fill:#4f534f; stroke:none;" d="M524 632L523 640L525 640L527 632L524 632M528 632L529 633L528 632z"/>
<path style="fill:#335358; stroke:none;" d="M533 632L533 642L534 642L533 632z"/>
<path style="fill:#1c535f; stroke:none;" d="M0 633L5 637L0 633z"/>
<path style="fill:#335358; stroke:none;" d="M912 634L912 640L913 640L912 634z"/>
<path style="fill:#4f534f; stroke:none;" d="M287 635L287 647L288 647L287 635M120 640L120 642L122 642L122 640L120 640z"/>
<path style="fill:#335358; stroke:none;" d="M288.333 640.667L288.667 641.333L288.333 640.667z"/>
<path style="fill:#4f534f; stroke:none;" d="M533 642L533 661L534 661L533 642z"/>
<path style="fill:#6a5348; stroke:none;" d="M911 643L911 656L912 656L911 643z"/>
<path style="fill:#335358; stroke:none;" d="M288 644L288 651L289 651L288 644z"/>
<path style="fill:#1c535f; stroke:none;" d="M0 645L3 648C-1.48284 655.119 0 663.841 0 672L0 720L15 718L24 720L20 716L17 719L19 714L15 714L17 712L16 706L21 708C20.4546 702.714 18.8052 699.033 13 700L15 706L11 707L9 702L9 701L11 699C4.28319 695.599 7.61005 691.454 13 689L13 688L8 687L14 684L14 672L12 672L11 677L10 677L6 668L8 668L8 664L8 663C4.61022 661.278 3.67387 659.807 4 656C2.34325 651.14 8.12604 646.307 0 645z"/>
<path style="fill:#4f534f; stroke:none;" d="M119 647L120 648L119 647z"/>
<path style="fill:#6a5348; stroke:none;" d="M175 647C174.818 656.056 175.704 666.228 166 670C166.18 675.043 160.931 683.471 168 685L166 688L166 697L166.5 703.833L176 707L176 704L177 704C180.402 705.317 182.784 704.458 184 701L189 701C187.866 691.448 186.378 681.618 186.019 672C185.89 668.56 187.202 662.581 183 662L184 654L175 647z"/>
<path style="fill:#335358; stroke:none;" d="M0 651L3 648L0 651z"/>
<path style="fill:#6a5348; stroke:none;" d="M269.333 648.667L269.667 649.333L269.333 648.667z"/>
<path style="fill:#4f534f; stroke:none;" d="M288 651L288 667L289 667L288 651z"/>
<path style="fill:#335358; stroke:none;" d="M120 653L119 654L119 655L119 656L122 653L120 653z"/>
<path style="fill:#4f534f; stroke:none;" d="M179 656L179 658L181 658L181 656L179 656M911 656L911 667L912 667L911 656M99 658L99 661L101 661L101 658L99 658z"/>
<path style="fill:#335358; stroke:none;" d="M289 660L289 668L290 668L289 660z"/>
<path style="fill:#6a5348; stroke:none;" d="M907 661L907 664L908 664L907 661z"/>
<path style="fill:#4f534f; stroke:none;" d="M102 663L102 664L105 664L102 663z"/>
<path style="fill:#1c535f; stroke:none;" d="M242 663L244 665L242 663M8.33333 664.667L8.66667 665.333L8.33333 664.667z"/>
<path style="fill:#335358; stroke:none;" d="M911 667L912 668L911 667z"/>
<path style="fill:#4f534f; stroke:none;" d="M88.3333 668.667L88.6667 669.333L88.3333 668.667M289 668L289 679L290 679L289 668M911 668L911 671L912 671L911 668M278 669L280 671L280 669L278 669z"/>
<path style="fill:#335358; stroke:none;" d="M534 669L534 677L535 677L534 669z"/>
<path style="fill:#4f534f; stroke:none;" d="M92 670C92.8038 673.941 94.0994 675.843 98 677L98 676L97 670L96 670L95 672L92 670z"/>
<path style="fill:#335358; stroke:none;" d="M911 671L911 687L912 687L911 671z"/>
<path style="fill:#4f534f; stroke:none;" d="M100.667 672.333L101.333 672.667L100.667 672.333z"/>
<path style="fill:#87533f; stroke:none;" d="M909 673L909 680L910 680L909 673z"/>
<path style="fill:#335358; stroke:none;" d="M2 678L8 674L2 678M117 677L120 675L117 677M290 675L290 683L291 683L290 675z"/>
<path style="fill:#4f534f; stroke:none;" d="M534 677L534 696L535 696L534 677M99 681L102 682L108 680L99 681M111 679L112 680L111 679z"/>
<path style="fill:#335358; stroke:none;" d="M10 680L10 682L12 680L10 680z"/>
<path style="fill:#4f534f; stroke:none;" d="M79 687L81 687L82 680C78.7277 681.806 78.1905 683.382 79 687M290 683L290 692L291 692L290 683M910 684L910 688L911 688L910 684M78 688L79 691L80 691L80 688L78 688z"/>
<path style="fill:#335358; stroke:none;" d="M911 688L911 692L912 692L911 688M127 690L128 691L127 690z"/>
<path style="fill:#1c535f; stroke:none;" d="M29 691L30 692L29 691z"/>
<path style="fill:#335358; stroke:none;" d="M291 691L291 697L292 697L291 691z"/>
<path style="fill:#1c535f; stroke:none;" d="M9 694L9 695L18 696L9 694z"/>
<path style="fill:#87533f; stroke:none;" d="M257 699L257 703L255 703L255 699L253 701L248 701L248 703C250.79 705.784 251.765 708.648 256 708L262 720L264 718L265 718L266 718C269.804 722.354 282.439 720 288 720L287 706L283 708L282 704L290 702L283 700L284 696C273.5 690.722 267.158 695.848 257 699z"/>
<path style="fill:#335358; stroke:none;" d="M911 693L912 694L911 693z"/>
<path style="fill:#4f534f; stroke:none;" d="M88 697L95 696C92.5194 693.519 88.8565 693.003 88 697z"/>
<path style="fill:#335358; stroke:none;" d="M122.667 695.333L123.333 695.667L122.667 695.333z"/>
<path style="fill:#87533f; stroke:none;" d="M289 696L289 700L290 700L289 696z"/>
<path style="fill:#4f534f; stroke:none;" d="M78 697L79 698L78 697M85 697L88 700L96 713L99 704L94 697L89 700L85 697M291 697L291 707L292 707L291 697M81 702L81 703L85 702L81 702z"/>
<path style="fill:#6a5348; stroke:none;" d="M259 701L259 704L261 703L261 702L259 701z"/>
<path style="fill:#335358; stroke:none;" d="M535 702L535 710L536 710L535 702M95 703L96 704L95 703M113 705L113 707L115 707L115 705L113 705M292 706L292 714L293 714L292 706M107 708L109 712L109 708L107 708z"/>
<path style="fill:#87533f; stroke:none;" d="M290 708L289 716L290 716L290 708z"/>
<path style="fill:#1c535f; stroke:none;" d="M24 709L24 710L27 710L24 709z"/>
<path style="fill:#335358; stroke:none;" d="M117 709L117 712L119 712L119 709L117 709z"/>
<path style="fill:#4f534f; stroke:none;" d="M83 710C82.3306 719.304 88.1413 719.999 96 720C94.015 716.1 92.0424 715.353 88 717L83 710M88 710L88 712L91 712L91 710L88 710M535 710L535 720L536 720L535 710z"/>
<path style="fill:#1c535f; stroke:none;" d="M21 712L22 713L21 712z"/>
<path style="fill:#335358; stroke:none;" d="M119.333 714.667L119.667 715.333L119.333 714.667z"/>
<path style="fill:#4f534f; stroke:none;" d="M292 714L292 720L293 720L292 714M101 715L100 718L101 715z"/>
<path style="fill:#335358; stroke:none;" d="M112 717L112 718L116 719L116 716L112 717z"/>
<path style="fill:#87533f; stroke:none;" d="M534 716L534 720L535 720L534 716z"/>
<path style="fill:#335358; stroke:none;" d="M15 718L14 720L16 720L15 718z"/>
<path style="fill:#6a5348; stroke:none;" d="M264 718L264 720L266 720L266 718L264 718z"/>
<path style="fill:#335358; stroke:none;" d="M111 719L112 720L111 719M118.667 719.333L119.333 719.667L118.667 719.333M910 719L911 720L910 719z"/>
</svg>
